<?xml version="1.0" encoding="UTF-8"?>
<!-- Created with Inkscape (http://www.inkscape.org/) -->
<svg width="10.912mm" height="10mm" version="1.1" viewBox="0 0 10.912 10" xmlns="http://www.w3.org/2000/svg"><g transform="matrix(.99995 0 0 .99995 -4.5435 0)" stroke-width=".14115"><path d="m7.6264 4.8237c0.79581 0 2.3879-0.76744 2.3879-0.76744v-9e-3c-0.43969 0-0.79567-0.34766-0.79567-0.7762 0-0.11659 0.0268-0.22711 0.0744-0.32662 0.15964-0.3653 0.56714-0.77111 1.1285-1.4409 0.53398-0.63758 1.1282-1.2399 0.50038-1.4369-0.98453-0.30912-2.4577 0.48019-3.4406 1.8909-0.58 0.83237-0.73823 1.4944-0.73823 1.996 0 0.34625 0.16205 0.86992 0.88333 0.86992" fill="#c20e1a"/><path d="m12.402 1.7192c-0.79609 0-2.388 0.7673-2.388 0.7673v9e-3c0.43969 0 0.79595 0.34766 0.79595 0.77633 0 0.11645-0.0272 0.22698-0.0747 0.32649-0.15964 0.36544-0.56701 0.77125-1.1285 1.441-0.53383 0.63744-1.1281 1.2397-0.50037 1.4369 0.98453 0.30884 2.4579-0.48034 3.4406-1.891 0.57999-0.83252 0.73822-1.4944 0.73822-1.9959 0-0.34625-0.1619-0.86992-0.88318-0.86992m-6.8865 5.7593c0.25831 0 0.46665 0.0271 0.6246 0.0813 0.15794 0.0542 0.28611 0.14313 0.38365 0.26635a0.73399 0.73399 0 0 1 0.10163 0.1684c0.0299 0.0666 0.0565 0.14059 0.079 0.22118 0.0226 0.0808 0.0395 0.16586 0.0508 0.25549 0.0113 0.0892 0.0168 0.18067 0.0168 0.27383 0 0.11081-9e-3 0.22697-0.0282 0.3478a1.8201 1.8201 0 0 1-0.0769 0.32126c-0.0476 0.14115-0.11489 0.25407-0.20142 0.33834-0.0865 0.0847-0.19733 0.14793-0.33312 0.19098-0.0347 0.0127-0.0713 0.0219-0.10883 0.0285-0.0377 6e-3 -0.0797 0.012-0.12619 0.0169-0.0462 5e-3 -0.10106 8e-3 -0.16345 9e-3 -0.0628 2e-3 -0.13551 2e-3 -0.21836 2e-3h-0.97197v-2.5217zm-0.43799 2.072h0.43799c0.11787 0 0.21893-0.0139 0.30277-0.0414 0.0841-0.0279 0.14877-0.0697 0.1938-0.12493 0.0528-0.0656 0.0947-0.15639 0.12619-0.27242 0.031-0.11574 0.0469-0.23925 0.0469-0.37038 0-0.15357-0.0205-0.29345-0.062-0.41964-0.0416-0.12591-0.0971-0.2178-0.1674-0.2761a0.44223 0.44223 0 0 0-0.17701-0.0906c-0.0675-0.0175-0.1554-0.0265-0.26324-0.0265h-0.438zm3.8879 0.011h-0.68444c-0.15202-2e-3 -0.31406-0.0358-0.425-0.14779-0.11519-0.11617-0.15894-0.28273-0.16882-0.44208h1.0704v-0.4634h-1.0704c0.01-0.15936 0.0536-0.32578 0.16882-0.44181 0.11094-0.11207 0.27298-0.14609 0.425-0.14807h0.68444v-0.43883h-0.70872c-0.24532 0-0.50306 0.026-0.71197 0.16571-0.19408 0.12986-0.32168 0.32027-0.38675 0.54343a1.7178 1.7178 0 0 0-0.0683 0.43545c-2e-3 0.0387-3e-3 0.0772-2e-3 0.11589-2e-3 0.0387-1e-3 0.0771 2e-3 0.11574 6e-3 0.24038 0.0556 0.50363 0.18745 0.70787 0.12309 0.19141 0.32183 0.34174 0.54442 0.39297 0.14172 0.0325 0.28993 0.0438 0.43517 0.0438h0.70858zm2.0137-1.6444c0.0216-2e-3 0.043-6e-3 0.0648-6e-3h0.78212v-0.43192h-0.77506c-0.14228 0-0.27892 0.013-0.41061 0.0387-0.13155 0.0258-0.25563 0.0854-0.37208 0.17912-0.13974 0.11476-0.2377 0.25464-0.29345 0.41965-0.043 0.12675-0.0706 0.25619-0.0833 0.38774h0.30404v0.4706h-0.30404c0.0127 0.13156 0.0402 0.26099 0.0833 0.38803 0.0558 0.16472 0.15371 0.3046 0.29345 0.41921 0.11645 0.0939 0.24053 0.15343 0.37208 0.17926 0.13155 0.0258 0.26833 0.0385 0.41061 0.0385h0.77506v-0.43164h-0.78212c-0.0217 0-0.0432-4e-3 -0.0648-6e-3 -0.19959-0.0209-0.3317-0.10333-0.3965-0.2473-0.0741-0.16529-0.11461-0.35725-0.12209-0.57561 7e-3 -0.21879 0.048-0.41076 0.12209-0.5759 0.0649-0.14398 0.19691-0.22641 0.39664-0.2473m4.4769-0.43729h-0.66736l-0.50321 0.78057-0.50306-0.78057h-0.66722l0.84309 1.2603-0.84309 1.2603h0.66736l0.50292-0.78057 0.50321 0.78057h0.66736l-0.8431-1.2605zm-3.2143 2.5205h0.55218v-2.5205h-0.55218z" fill="#1c3f4d"/></g></svg>
