<?xml version="1.0" encoding="UTF-8"?>
<!-- Created with Inkscape (http://www.inkscape.org/) -->
<svg width="69.874mm" height="10mm" version="1.1" viewBox="0 0 69.874 10" xmlns="http://www.w3.org/2000/svg"><g transform="matrix(3.4941 0 0 3.4941 -.0035046 -12.47)"><path d="m3.1621 4.7188h-1.2892l0.13032-0.48649h1.2908c0.13202 7.101e-4 0.20981 0.10944 0.17375 0.24347-0.036158 0.13437-0.173 0.24318-0.30567 0.24302zm0.74366 0.56196c0.41878 4.691e-4 0.86133-0.38228 0.98851-0.85491 0.12717-0.47264-0.10922-0.85618-0.52803-0.85666l-0.65559-7.49e-5v-1.3e-5h-2.9429l-0.76667 2.8619h1.4132l0.30812-1.1502h0.75921l0.78979 1.1502h1.4131l-0.78974-1.1502h0.011075" fill="#23509f"/><path d="m17.244 3.5691-0.46008 1.7174-1.3479-1.7174h-1.4131l-0.76667 2.8619h1.4131l0.45865-1.712 1.3493 1.712h1.4132l0.76664-2.8619h-1.4131" fill="#23509f"/><path d="m13.695 3.569h-7.7322c-0.27545 0-0.51647 0.18524-0.58735 0.45141l-0.43832 1.6464c-0.10271 0.38581 0.18809 0.76418 0.58732 0.76418h3.3034l0.17655-0.66317h-2.4724c-0.10531 0-0.18199-0.099799-0.15492-0.20155l0.075931-0.28519h2.681l0.14965-0.5622h-2.681l0.097886-0.36759c0.018698-0.070201 0.082251-0.11906 0.15489-0.11906h3.8366l-0.58543 2.1988h1.4132l0.58543-2.1988h1.4131l0.17659-0.66322" fill="#d70b8d"/><path d="m19.492 3.6199c-0.25167 0-0.4564 0.20475-0.4564 0.4564 0 0.25169 0.20473 0.45645 0.4564 0.45645 0.25167 0 0.45643-0.20476 0.45643-0.45645 0-0.25165-0.20476-0.4564-0.45643-0.4564zm0 0.96359c-0.27965 0-0.50715-0.22751-0.50715-0.50719 0-0.27965 0.2275-0.50716 0.50715-0.50716 0.27968 0 0.50718 0.22751 0.50718 0.50716 0 0.27968-0.2275 0.50719-0.50718 0.50719" fill="#23509f"/><path d="m19.575 4.0313h-0.15356l0.0155-0.05796h0.15378c0.01573 1.042e-4 0.02499 0.013043 0.02072 0.029014-0.0043 0.016007-0.02062 0.028959-0.03645 0.028946zm0.0886 0.06697c0.0499 3.91e-5 0.10264-0.045552 0.11776-0.10186 0.01518-0.056305-0.013-0.10201-0.06287-0.10205l-0.07815-2.28e-5h-0.35057l-0.09134 0.34095h0.16834l0.03671-0.13701h0.09043l0.09411 0.13701h0.16834l-0.09408-0.13701h0.0013" fill="#23509f"/></g></svg>
