<?xml version="1.0" encoding="UTF-8" standalone="no"?>
<!-- Created with Inkscape (http://www.inkscape.org/) -->

<svg
   width="20mm"
   height="10mm"
   viewBox="0 0 20 10"
   version="1.1"
   id="svg1"
   inkscape:version="1.3.2 (091e20e, 2023-11-25)"
   sodipodi:docname="Ayscom_2x1.svg"
   xmlns:inkscape="http://www.inkscape.org/namespaces/inkscape"
   xmlns:sodipodi="http://sodipodi.sourceforge.net/DTD/sodipodi-0.dtd"
   xmlns="http://www.w3.org/2000/svg"
   xmlns:svg="http://www.w3.org/2000/svg">
  <sodipodi:namedview
     id="namedview1"
     pagecolor="#ffffff"
     bordercolor="#000000"
     borderopacity="0.25"
     inkscape:showpageshadow="2"
     inkscape:pageopacity="0.0"
     inkscape:pagecheckerboard="0"
     inkscape:deskcolor="#d1d1d1"
     inkscape:document-units="mm"
     inkscape:zoom="6.175466"
     inkscape:cx="37.729946"
     inkscape:cy="23.560975"
     inkscape:window-width="1472"
     inkscape:window-height="828"
     inkscape:window-x="0"
     inkscape:window-y="38"
     inkscape:window-maximized="1"
     inkscape:current-layer="layer1" />
  <defs
     id="defs1">
    <clipPath
       id="D">
      <path
         d="M 0,454 H 2551.18 V 0 H 0 Z"
         transform="translate(-170.866,-125.406)"
         id="path1" />
    </clipPath>
    <clipPath
       id="N">
      <path
         d="M 0,454 H 2551.18 V 0 H 0 Z"
         transform="translate(-354.768,-217.429)"
         id="path6" />
    </clipPath>
    <clipPath
       id="P">
      <path
         d="M 0,454 H 2551.18 V 0 H 0 Z"
         transform="translate(-520.875,-252.42)"
         id="path7" />
    </clipPath>
    <clipPath
       id="R">
      <path
         d="M 0,454 H 2551.18 V 0 H 0 Z"
         transform="translate(-657.992,-150.645)"
         id="path8" />
    </clipPath>
    <clipPath
       id="T">
      <path
         d="M 0,454 H 2551.18 V 0 H 0 Z"
         transform="translate(-836.162,-149.152)"
         id="path9" />
    </clipPath>
    <clipPath
       id="V">
      <path
         d="M 0,454 H 2551.18 V 0 H 0 Z"
         transform="translate(-947.887,-238.979)"
         id="path10" />
    </clipPath>
    <clipPath
       id="X">
      <path
         d="M 0,454 H 2551.18 V 0 H 0 Z"
         id="path11" />
    </clipPath>
    <clipPath
       id="Z">
      <path
         d="M 0,454 H 2551.18 V 0 H 0 Z"
         transform="translate(-1063.84,-238.979)"
         id="path12" />
    </clipPath>
    <clipPath
       clipPathUnits="userSpaceOnUse"
       id="clipPath2">
      <path
         d="M 0,1080 H 1920 V 0 H 0 Z"
         transform="translate(-955.99262,-365.54031)"
         id="path2" />
    </clipPath>
    <clipPath
       clipPathUnits="userSpaceOnUse"
       id="clipPath4">
      <path
         d="M 0,1080 H 1920 V 0 H 0 Z"
         transform="translate(-1010.2548,-311.27813)"
         id="path4" />
    </clipPath>
    <clipPath
       clipPathUnits="userSpaceOnUse"
       id="clipPath6">
      <path
         d="M 0,1080 H 1920 V 0 H 0 Z"
         transform="translate(-1279.5681,-343.78151)"
         id="path6-0" />
    </clipPath>
    <clipPath
       clipPathUnits="userSpaceOnUse"
       id="clipPath8">
      <path
         d="M 0,1080 H 1920 V 0 H 0 Z"
         transform="translate(-1407.5298,-256.90801)"
         id="path8-2" />
    </clipPath>
    <clipPath
       clipPathUnits="userSpaceOnUse"
       id="clipPath10">
      <path
         d="M 0,1080 H 1920 V 0 H 0 Z"
         transform="translate(-1473.5082,-369.69771)"
         id="path10-4" />
    </clipPath>
    <clipPath
       clipPathUnits="userSpaceOnUse"
       id="clipPath12">
      <path
         d="M 0,1080 H 1920 V 0 H 0 Z"
         transform="translate(-1609.1907,-302.58541)"
         id="path12-8" />
    </clipPath>
    <clipPath
       clipPathUnits="userSpaceOnUse"
       id="clipPath14">
      <path
         d="M 0,1080 H 1920 V 0 H 0 Z"
         transform="translate(-1459.1461,-451.28001)"
         id="path14" />
    </clipPath>
    <clipPath
       clipPathUnits="userSpaceOnUse"
       id="clipPath16">
      <path
         d="M 0,1080 H 1920 V 0 H 0 Z"
         transform="translate(-727.38952,-349.28871)"
         id="path16" />
    </clipPath>
    <clipPath
       clipPathUnits="userSpaceOnUse"
       id="clipPath18">
      <path
         d="M 0,1080 H 1920 V 0 H 0 Z"
         transform="translate(-640.08412,-331.84921)"
         id="path18" />
    </clipPath>
    <clipPath
       clipPathUnits="userSpaceOnUse"
       id="clipPath20">
      <path
         d="M 0,1080 H 1920 V 0 H 0 Z"
         transform="translate(-644.40341,-444.26101)"
         id="path20" />
    </clipPath>
    <clipPath
       clipPathUnits="userSpaceOnUse"
       id="clipPath22">
      <path
         d="M 0,1080 H 1920 V 0 H 0 Z"
         transform="translate(-651.86962,-666.25271)"
         id="path22" />
    </clipPath>
    <clipPath
       clipPathUnits="userSpaceOnUse"
       id="clipPath24">
      <path
         d="M 0,1080 H 1920 V 0 H 0 Z"
         transform="translate(-1247.1895,-654.57221)"
         id="path24" />
    </clipPath>
    <clipPath
       clipPathUnits="userSpaceOnUse"
       id="clipPath26">
      <path
         d="M 0,1080 H 1920 V 0 H 0 Z"
         transform="translate(-1072.8915,-657.62111)"
         id="path26" />
    </clipPath>
    <clipPath
       clipPathUnits="userSpaceOnUse"
       id="clipPath28">
      <path
         d="M 0,1080 H 1920 V 0 H 0 Z"
         transform="translate(-1303.6389,-662.62481)"
         id="path28" />
    </clipPath>
    <clipPath
       clipPathUnits="userSpaceOnUse"
       id="clipPath30">
      <path
         d="M 0,1080 H 1920 V 0 H 0 Z"
         transform="translate(-1554.5841,-678.91751)"
         id="path30" />
    </clipPath>
    <clipPath
       clipPathUnits="userSpaceOnUse"
       id="clipPath32">
      <path
         d="M 0,1080 H 1920 V 0 H 0 Z"
         transform="translate(-810.29365,-513.40621)"
         id="path32" />
    </clipPath>
    <clipPath
       clipPathUnits="userSpaceOnUse"
       id="clipPath34">
      <path
         d="M 0,1080 H 1920 V 0 H 0 Z"
         transform="translate(-534.01162,-713.29732)"
         id="path34" />
    </clipPath>
    <clipPath
       clipPathUnits="userSpaceOnUse"
       id="clipPath36">
      <path
         d="M 0,1080 H 1920 V 0 H 0 Z"
         transform="translate(-479.23951,-693.75992)"
         id="path36" />
    </clipPath>
    <clipPath
       clipPathUnits="userSpaceOnUse"
       id="clipPath38">
      <path
         d="M 0,1080 H 1920 V 0 H 0 Z"
         transform="translate(-330.50201,-909.59922)"
         id="path38" />
    </clipPath>
    <clipPath
       clipPathUnits="userSpaceOnUse"
       id="clipPath40">
      <path
         d="M 0,1080 H 1920 V 0 H 0 Z"
         transform="translate(-426.39001,-639.57782)"
         id="path40" />
    </clipPath>
  </defs>
  <g
     inkscape:label="Capa 1"
     inkscape:groupmode="layer"
     id="layer1">
    <g
       id="g40"
       transform="matrix(0.01010781,0,0,0.01010781,-2.5336869,-2.017519)">
      <path
         id="path1-9"
         d="m 0,0 c -4.033,3.218 -8.416,5.971 -13.066,8.207 -4.891,2.178 -10.197,3.265 -15.55,3.185 -5.003,0.152 -9.947,-1.121 -14.254,-3.671 C -47.211,4.833 -51.104,1.322 -54.424,-2.7 L -89.951,-43.248 C -94.283,-48 -97.331,-53.78 -98.806,-60.039 V 59.985 c 0.195,4.663 -0.711,9.306 -2.645,13.552 -1.667,3.263 -4.093,6.077 -7.073,8.207 -2.919,2.008 -6.232,3.371 -9.719,3.996 -3.557,0.695 -7.174,1.039 -10.798,1.026 -3.356,0.02 -6.709,-0.16 -10.043,-0.54 -1.82,-0.107 -3.628,-0.378 -5.399,-0.81 v -236.162 h 45.569 v 80.718 c 0.86,-6.26 3.461,-12.153 7.505,-17.007 l 37.147,-49.889 c 8.036,-11.675 21.662,-18.211 35.797,-17.17 5.021,-0.051 10.018,0.715 14.793,2.268 4.163,1.178 8.117,3 11.717,5.399 l -62.631,83.472 z"
         style="fill:#000000 icc-color(sRGB-IEC61966-2, 0.1, 0, 0, 0);fill-opacity:1;fill-rule:nonzero;stroke:none"
         transform="matrix(1.3333333,0,0,-1.3333333,1274.6568,952.61293)"
         clip-path="url(#clipPath2)" />
      <path
         id="path3"
         d="m 0,0 c -0.511,9.574 2.419,19.016 8.261,26.618 5.508,6.432 13.678,9.959 22.137,9.557 10.798,0 18.141,-3.348 22.244,-10.043 C 57.104,18.169 59.255,9.119 58.852,0 Z M 84.282,45.03 C 78.482,51.834 71.206,57.226 63.009,60.795 52.938,64.963 42.103,66.968 31.207,66.68 21.62,66.661 12.099,65.075 3.023,61.983 c -9.144,-3.144 -17.53,-8.164 -24.62,-14.74 -7.515,-7.121 -13.44,-15.75 -17.385,-25.322 -4.691,-11.53 -6.987,-23.892 -6.749,-36.337 -0.462,-14.591 2.055,-29.122 7.397,-42.708 4.24,-10.374 10.84,-19.617 19.275,-26.996 7.834,-6.654 17.058,-11.469 26.996,-14.092 10.096,-2.669 20.494,-4.03 30.937,-4.049 10.232,-0.183 20.436,1.126 30.29,3.887 7.13,1.862 13.875,4.969 19.923,9.179 4.932,2.683 8.21,7.639 8.747,13.228 -0.394,4.592 -1.894,9.019 -4.373,12.904 -2.446,4.498 -5.244,8.795 -8.369,12.85 l -6.641,-5.561 c -2.679,-2.292 -5.614,-4.267 -8.747,-5.885 -3.604,-1.904 -7.407,-3.407 -11.338,-4.481 -4.8,-1.322 -9.763,-1.958 -14.74,-1.89 -14.524,0 -25.161,4.103 -31.802,12.256 -6.948,8.759 -10.937,19.497 -11.392,30.668 H 98.86 c 0.309,1.475 0.49,2.974 0.54,4.481 l 0.324,5.885 v 5.669 4.698 c 0.049,9.126 -1.187,18.214 -3.672,26.996 -2.353,8.194 -6.359,15.819 -11.77,22.407"
         style="fill:#000000 icc-color(sRGB-IEC61966-2, 0.1, 0, 0, 0);fill-opacity:1;fill-rule:nonzero;stroke:none"
         transform="matrix(1.3333333,0,0,-1.3333333,1347.0064,1024.9625)"
         clip-path="url(#clipPath4)" />
      <path
         id="path5"
         d="m 0,0 c -1.892,9.72 -7.102,18.48 -14.74,24.782 -7.559,6.21 -19.275,9.395 -35.149,9.395 -10.986,0.519 -21.925,-1.747 -31.801,-6.587 -6.741,-3.441 -12.668,-8.282 -17.386,-14.2 -0.902,5.868 -4.61,10.926 -9.934,13.552 -5.817,2.681 -12.171,3.992 -18.574,3.834 h -6.317 c -1.799,0 -3.365,-0.162 -4.697,-0.486 l -4.049,-0.648 v -158.629 h 45.893 v 108.524 c 0.308,5.634 3.75,10.619 8.909,12.904 6.459,3.673 13.789,5.538 21.219,5.399 4.666,0.239 9.324,-0.612 13.606,-2.483 3.062,-1.511 5.532,-4 7.019,-7.073 1.543,-3.408 2.457,-7.066 2.699,-10.799 0.324,-4.265 0.486,-8.854 0.486,-13.714 v -92.758 h 45.57 v 94.486 c 0,5.777 0,11.716 -0.486,17.763 C 1.938,-11.109 1.179,-5.514 0,0"
         style="fill:#000000 icc-color(sRGB-IEC61966-2, 0.1, 0, 0, 0);fill-opacity:1;fill-rule:nonzero;stroke:none"
         transform="matrix(1.3333333,0,0,-1.3333333,1706.0907,981.62467)"
         clip-path="url(#clipPath6)" />
      <path
         id="path7-0"
         d="m 0,0 c -0.648,-0.702 -1.782,-1.674 -3.348,-3.024 -1.785,-1.504 -3.742,-2.791 -5.831,-3.833 -2.496,-1.303 -5.075,-2.439 -7.721,-3.402 -2.863,-1 -5.875,-1.511 -8.908,-1.511 -12.706,0 -19.06,7.811 -19.06,23.432 v 71.54 H 1.998 v 34.123 h -46.866 v 23.433 c 0.181,4.684 -0.744,9.345 -2.699,13.606 -1.632,3.269 -4.042,6.087 -7.019,8.207 -2.918,2.008 -6.232,3.37 -9.719,3.995 -3.557,0.692 -7.174,1.036 -10.798,1.026 h -5.399 c -1.782,0 -3.456,-0.324 -5.022,-0.54 l -5.021,-0.648 V 10.798 c 0,-4.895 0.216,-9.808 0.648,-14.739 0.418,-4.788 1.434,-9.504 3.024,-14.038 3.02,-8.579 8.693,-15.973 16.197,-21.111 9.727,-5.92 21.03,-8.727 32.396,-8.045 6.649,-0.062 13.282,0.663 19.761,2.159 5.367,1.193 10.545,3.119 15.388,5.724 3.737,1.925 7.087,4.524 9.88,7.667 2.172,2.341 3.419,5.392 3.51,8.584 -0.088,3.508 -0.994,6.947 -2.646,10.043 C 5.361,-8.477 2.818,-4.148 0,0"
         style="fill:#000000 icc-color(sRGB-IEC61966-2, 0.1, 0, 0, 0);fill-opacity:1;fill-rule:nonzero;stroke:none"
         transform="matrix(1.3333333,0,0,-1.3333333,1876.7063,1097.456)"
         clip-path="url(#clipPath8)" />
      <path
         id="path9-5"
         d="M 0,0 C -2.948,1.93 -6.252,3.252 -9.719,3.887 -13.281,4.54 -16.895,4.865 -20.517,4.859 -23.871,4.872 -27.223,4.71 -30.56,4.373 -32.381,4.272 -34.188,4.001 -35.959,3.564 v -134.009 c 0,-11.177 2.754,-18.574 8.207,-22.245 6.387,-3.898 13.8,-5.78 21.273,-5.399 3.563,0 6.965,0 10.043,0.324 2.058,0.003 4.102,0.35 6.047,1.026 v 135.142 c 0.186,4.668 -0.739,9.312 -2.7,13.552 C 5.35,-4.805 2.967,-2.031 0,0"
         style="fill:#000000 icc-color(sRGB-IEC61966-2, 0.1, 0, 0, 0);fill-opacity:1;fill-rule:nonzero;stroke:none"
         transform="matrix(1.3333333,0,0,-1.3333333,1964.6775,947.06973)"
         clip-path="url(#clipPath10)" />
      <path
         id="path11-2"
         d="m 0,0 54.586,62.955 c -4.084,3.228 -8.522,5.982 -13.228,8.207 -4.908,2.184 -10.233,3.271 -15.604,3.185 -4.985,0.145 -9.909,-1.128 -14.2,-3.671 C 7.202,67.802 3.307,64.289 0,60.255 L -35.527,19.707 C -39.818,14.97 -42.813,9.205 -44.22,2.97 v 119.97 c 0.181,4.667 -0.744,9.311 -2.699,13.552 -1.647,3.26 -4.054,6.075 -7.019,8.207 -2.919,2.008 -6.232,3.371 -9.719,3.996 -3.557,0.695 -7.174,1.038 -10.798,1.025 -3.356,0.021 -6.709,-0.159 -10.043,-0.539 -1.821,-0.101 -3.629,-0.372 -5.399,-0.81 V -87.791 h 45.569 v 80.718 c 0.877,-6.154 3.437,-11.946 7.397,-16.738 L 0.216,-73.699 c 7.982,-11.795 21.644,-18.441 35.851,-17.44 4.992,-0.015 9.953,0.788 14.686,2.376 4.179,1.179 8.15,3 11.77,5.399 z"
         style="fill:#000000 icc-color(sRGB-IEC61966-2, 0.1, 0, 0, 0);fill-opacity:1;fill-rule:nonzero;stroke:none"
         transform="matrix(1.3333333,0,0,-1.3333333,2145.5875,1036.5528)"
         clip-path="url(#clipPath12)" />
      <path
         id="path13"
         d="m 0,0 c -6.498,0.15 -12.784,-2.321 -17.439,-6.857 -4.728,-4.612 -7.295,-11.001 -7.073,-17.601 -0.243,-6.541 2.333,-12.872 7.073,-17.386 9.825,-8.939 24.837,-8.939 34.663,0 4.809,4.474 7.431,10.821 7.181,17.386 0.228,6.623 -2.385,13.028 -7.181,17.601 C 12.611,-2.39 6.421,0.075 0,0"
         style="fill:#000000 icc-color(sRGB-IEC61966-2, 0.1, 0, 0, 0);fill-opacity:1;fill-rule:nonzero;stroke:none"
         transform="matrix(1.3333333,0,0,-1.3333333,1945.5281,838.29333)"
         clip-path="url(#clipPath14)" />
      <path
         id="path15"
         d="M 0,0 C -4.613,4.467 -10.803,6.932 -17.224,6.857 -23.725,7.026 -30.018,4.552 -34.663,0 c -4.728,-4.612 -7.295,-11.001 -7.073,-17.601 -0.243,-6.541 2.333,-12.872 7.073,-17.386 4.679,-4.482 10.963,-6.895 17.439,-6.695 6.397,-0.112 12.582,2.292 17.224,6.695 4.81,4.474 7.431,10.822 7.181,17.386 C 7.409,-10.978 4.796,-4.573 0,0"
         style="fill:#e05420 icc-color(sRGB-IEC61966-2, 0.1, 0.87799072, 0.32899475, 0.125);fill-opacity:1;fill-rule:nonzero;stroke:none"
         transform="matrix(1.3333333,0,0,-1.3333333,969.85267,974.28173)"
         clip-path="url(#clipPath16)" />
      <path
         id="path17"
         d="m 0,0 84.12,112.412 c -3.624,2.357 -7.571,4.175 -11.716,5.399 -4.735,1.684 -9.715,2.578 -14.74,2.646 -6.9,0.204 -13.76,-1.124 -20.085,-3.888 -6.086,-3.248 -11.378,-7.802 -15.496,-13.336 L -54.694,0 22.083,-102.963 c 4.141,-5.651 9.514,-10.286 15.712,-13.552 6.325,-2.764 13.185,-4.092 20.085,-3.888 4.931,-0.026 9.835,0.739 14.524,2.268 4.145,1.224 8.092,3.043 11.716,5.399 z"
         style="fill:#e05420 icc-color(sRGB-IEC61966-2, 0.1, 0.87799072, 0.32899475, 0.125);fill-opacity:1;fill-rule:nonzero;stroke:none"
         transform="matrix(1.3333333,0,0,-1.3333333,853.44547,997.5344)"
         clip-path="url(#clipPath18)" />
      <path
         id="path19"
         d="m 0,0 c -3.624,2.357 -7.57,4.175 -11.716,5.399 -4.738,1.676 -9.716,2.569 -14.74,2.646 -6.9,0.204 -13.76,-1.123 -20.085,-3.888 -6.172,-3.232 -11.555,-7.786 -15.766,-13.336 l -76.507,-103.233 76.507,-102.963 c 4.159,-5.655 9.551,-10.289 15.766,-13.552 6.325,-2.764 13.185,-4.092 20.085,-3.887 5.003,-0.046 9.981,0.72 14.74,2.267 4.146,1.224 8.092,3.043 11.716,5.399 l -84.12,112.736 z"
         style="fill:#e05420 icc-color(sRGB-IEC61966-2, 0.1, 0.87799072, 0.32899475, 0.125);fill-opacity:1;fill-rule:nonzero;stroke:none"
         transform="matrix(1.3333333,0,0,-1.3333333,859.20453,847.652)"
         clip-path="url(#clipPath20)" />
      <path
         id="path21"
         d="m 0,0 c -7.695,-8.421 -14.036,-20.584 -12.956,-37.889 0.97,-15.142 7.786,-25.928 16.795,-34.036 9.562,-8.475 21.285,-13.801 37.645,-13.234 15.227,0.588 26.262,7.808 34.291,16.514 8.577,9.272 13.903,21.14 13.289,37.677 C 88.417,-14.866 80.824,-4.6 72.486,3.331 64.156,11.289 51.057,17.753 34.889,16.566 19.143,15.422 7.808,8.591 0,0 m 89.115,29.42 c 0.017,5.054 0.028,10.132 0.028,15.17 10.174,-0.029 20.401,-0.029 30.616,-0.029 -0.074,-52.62 -0.139,-105.263 -0.206,-157.922 -10.216,0 -20.436,0 -30.6,0.05 0,4.972 0.013,9.93 0.022,14.89 -9.457,-6.454 -19.719,-12.629 -32.62,-15.406 -14.092,-3.076 -30.171,-2.18 -42.69,1.737 -22.596,7.038 -41.489,24.338 -50.8,46.161 -11.361,26.409 -5.661,58.283 7.377,77.25 12.696,18.464 33.477,34.211 62.174,35.842 25.85,1.522 42.36,-7.114 56.699,-17.743"
         style="fill:#143656 icc-color(sRGB-IEC61966-2, 0.1, 0.07998657, 0.20999146, 0.33799744);fill-opacity:1;fill-rule:evenodd;stroke:none"
         transform="matrix(1.3333333,0,0,-1.3333333,869.15947,551.66307)"
         clip-path="url(#clipPath22)" />
      <path
         id="path23"
         d="m 0,0 c -10.126,-0.608 -21.467,-0.044 -32.045,-0.25 -5.882,8.975 -11.591,16.325 -20.758,21.693 -8.984,5.21 -21.325,8.107 -35.114,5.659 -21.163,-3.771 -38.389,-20.906 -41.063,-43.498 -3.249,-26.897 12.276,-45.832 30.259,-53.751 10.72,-4.663 24.931,-5.188 36.238,-1.711 14.12,4.375 23.054,13.636 30.09,25.563 10.788,-0.019 21.582,-0.019 32.315,-0.019 -10.74,-28.256 -28.513,-48.526 -58.222,-55.9 -36.333,-8.973 -65.562,7.048 -82.319,26.54 -8.636,10.108 -15.821,23.085 -18.168,38.789 -5.743,37.727 11.655,64.061 32.396,79.741 10.963,8.337 25.671,14.439 42.438,15.43 24.279,1.371 41.225,-6.452 54.481,-16.666 C -15.757,31.036 -6.037,17.581 0,0"
         style="fill:#143656 icc-color(sRGB-IEC61966-2, 0.1, 0.07998657, 0.20999146, 0.33799744);fill-opacity:1;fill-rule:evenodd;stroke:none"
         transform="matrix(1.3333333,0,0,-1.3333333,1662.9193,567.23707)"
         clip-path="url(#clipPath24)" />
      <path
         id="path25"
         d="m 0,0 c -12.935,0 -25.849,0 -38.791,0.039 -0.365,13.558 -10.453,22.201 -23.57,23.055 -11.594,0.804 -28.672,-5.716 -26.17,-19.917 1.594,-8.674 14.166,-12.909 22.722,-16.034 9.866,-3.581 19.61,-6.814 28.389,-10.427 17.591,-7.284 37.062,-16.431 37.329,-39.922 0.142,-8.29 -2.58,-16.537 -6.219,-22.186 -11.389,-17.812 -41.398,-32.082 -72.804,-25.223 -13.205,2.882 -23.868,9.302 -32.585,18.032 -8.571,8.623 -14.691,19.554 -13.702,36.535 12.447,0 24.908,0 37.36,-0.052 -1.18,-15.987 11.213,-25.058 26.682,-25.058 11.517,0.039 25.475,6.22 24.145,17.709 -0.875,8.007 -13.35,13.069 -20.151,15.726 -24.963,9.874 -57.704,15.214 -66.27,41.095 -6.614,19.965 4.46,37.471 16.639,46.624 5.696,4.332 11.76,7.413 18.28,9.814 7.211,2.647 15.315,4.396 24.717,4.436 19.09,0.156 33.578,-6.146 44.345,-14.9 C -8.532,30.374 -0.675,18.766 0,0"
         style="fill:#143656 icc-color(sRGB-IEC61966-2, 0.1, 0.07998657, 0.20999146, 0.33799744);fill-opacity:1;fill-rule:evenodd;stroke:none"
         transform="matrix(1.3333333,0,0,-1.3333333,1430.5219,563.17187)"
         clip-path="url(#clipPath26)" />
      <path
         id="path27"
         d="m 0,0 c -7.702,-8.41 -14.039,-20.592 -12.948,-37.839 0.928,-15.199 7.786,-25.971 16.838,-34.079 9.501,-8.499 21.257,-13.813 37.609,-13.241 15.217,0.586 26.228,7.833 34.307,16.518 8.543,9.22 13.901,21.179 13.252,37.673 C 88.457,-14.858 80.817,-4.565 72.531,3.299 64.161,11.238 51.084,17.748 34.868,16.571 19.141,15.435 7.806,8.593 0,0 m 32.099,46.886 c 26.734,1.833 47.195,-8.075 60.663,-20.841 13.877,-13.179 24.999,-29.455 26.66,-54.535 1.749,-26.545 -7.921,-46.511 -20.609,-60.386 -13.094,-14.343 -30.155,-24.764 -54.545,-26.643 -25.627,-1.945 -46.412,7.568 -60.383,20.599 -14.046,13.06 -25.505,29.694 -27.19,53.973 -1.851,27.477 8.312,46.933 20.616,60.942 12.226,13.941 29.509,25.177 54.788,26.891"
         style="fill:#143656 icc-color(sRGB-IEC61966-2, 0.1, 0.07998657, 0.20999146, 0.33799744);fill-opacity:1;fill-rule:evenodd;stroke:none"
         transform="matrix(1.3333333,0,0,-1.3333333,1738.1852,556.50027)"
         clip-path="url(#clipPath28)" />
      <path
         id="path29"
         d="M 0,0 C 11.571,14.632 26.123,25.432 49.771,26.324 75.232,27.35 90.48,16.873 102.27,2.672 c 6.185,-7.35 10.291,-14.813 12.888,-25.262 2.559,-10.348 2.252,-22.574 2.242,-35.703 -0.068,-24.798 -0.088,-51.017 -0.112,-75.869 -10.139,0 -20.235,0.034 -30.353,0.034 0.034,27.165 0.077,55.92 0.087,83.153 0.041,14.215 -0.746,25.235 -7.802,33.75 -6.024,7.201 -14.904,13.268 -28.071,13.219 -18.668,-0.039 -31.38,-12.483 -34.868,-27.504 -1.354,-5.659 -0.888,-12.212 -0.915,-19.612 -0.027,-27.243 -0.051,-55.892 -0.105,-82.923 -10.065,0.051 -20.231,0.051 -30.32,0.051 0.034,27.147 0.068,55.919 0.095,83.144 0.027,14.205 -0.669,25.279 -7.786,33.744 -6.091,7.247 -14.839,13.265 -28.112,13.233 -18.472,-0.045 -31.494,-12.497 -34.857,-27.522 -1.273,-5.578 -0.875,-12.209 -0.895,-19.602 -0.017,-27.227 -0.044,-55.899 -0.105,-82.915 -10.112,0.036 -20.19,0.036 -30.333,0.036 0.074,52.624 0.159,105.256 0.203,157.904 10.146,-0.034 20.228,-0.034 30.353,-0.034 0,-3.115 0,-6.179 -0.03,-9.283 8.265,5.628 18.415,10.873 31.758,11.738 C -27.696,28.309 -9.737,15.994 0,0"
         style="fill:#143656 icc-color(sRGB-IEC61966-2, 0.1, 0.07998657, 0.20999146, 0.33799744);fill-opacity:1;fill-rule:evenodd;stroke:none"
         transform="matrix(1.3333333,0,0,-1.3333333,2072.7787,534.77667)"
         clip-path="url(#clipPath30)" />
      <path
         id="path31"
         d="m 0,0 137.329,196.589 c -12.856,0.034 -25.683,0.034 -38.499,0.083 C 74.37,162.53 20.877,85.615 20.877,85.615 c 0.043,36.694 0.081,74.435 0.127,111.126 -10.06,0 -20.067,0.066 -30.087,0.066 -0.276,-0.066 -0.276,-0.448 -0.276,-0.878 C -9.41,152.884 -9.477,105.91 -9.535,61.948 -9.535,55.521 -9.56,42.573 -9.56,42.573 -9.672,42.059 -21.833,23.113 -38.265,0.037 Z"
         style="fill:#143656 icc-color(sRGB-IEC61966-2, 0.1, 0.07998657, 0.20999146, 0.33799744);fill-opacity:1;fill-rule:evenodd;stroke:none"
         transform="matrix(1.3333333,0,0,-1.3333333,1080.3915,755.4584)"
         clip-path="url(#clipPath32)" />
      <path
         id="path33"
         d="m 0,0 c -12.588,-7.943 -25.004,-16.835 -37.514,-25.556 -12.589,-8.738 -25.444,-17.037 -37.712,-25.751 l -0.438,-0.436 c -2.014,-2.213 -3.573,-6.057 -5.526,-9.092 -28.717,-44.676 -57.544,-90.556 -85.232,-135.256 0.023,-0.241 -0.296,-0.337 0,-0.427 0.009,0.108 0.023,0.226 0.151,0.226 0,0 0.038,0 0.065,-0.01 36.129,12.086 80.351,21.156 127.488,21.156 11.884,0 23.962,-0.582 36.145,-1.83 10.517,24.569 20.283,53.075 21.948,87.261 C 21.184,-52.968 12.255,-23.712 0,0"
         style="fill:#5489b9 icc-color(sRGB-IEC61966-2, 0.1, 0.33099365, 0.53799438, 0.72399902);fill-opacity:1;fill-rule:nonzero;stroke:none"
         transform="matrix(1.3333333,0,0,-1.3333333,712.01547,488.93693)"
         clip-path="url(#clipPath34)" />
      <path
         id="path35"
         d="m 0,0 c 15.937,9.273 32.297,18.136 48.354,27.3 0.455,-0.132 0.108,1.593 -0.418,3.148 -0.258,0.802 -0.572,1.519 -0.85,1.967 -4.483,7.036 -9.73,14.361 -14.269,19.532"
         style="fill:#5489b9 icc-color(sRGB-IEC61966-2, 0.1, 0.33099365, 0.53799438, 0.72399902);fill-opacity:1;fill-rule:nonzero;stroke:none"
         transform="matrix(1.3333333,0,0,-1.3333333,638.986,514.9868)"
         clip-path="url(#clipPath36)" />
      <path
         id="path37"
         d="m 0,0 c 19.932,-16.614 38.124,-35.577 50.724,-59.505 6.293,-11.963 11.605,-26.518 13.641,-41.982 2.164,-16.399 0.888,-35.58 -1.29,-52.639 -8.37,-65.581 -37.891,-111.722 -65.617,-155.877 10.045,6.824 20.498,13.06 30.895,19.311 31.39,18.918 62.546,37.907 93.754,56.863 15.612,22.019 31.524,45.04 46.442,67.496 0.62,0.921 5.952,9.119 6.437,9.526 -2.715,4.113 -5.974,7.008 -9.196,10.688 -3.296,3.733 -6.98,6.974 -10.455,10.435 -6.946,6.957 -13.68,14.089 -20.662,21.104 C 93.074,-72.832 47.602,-34.645 0,0"
         style="fill:#5489b9 icc-color(sRGB-IEC61966-2, 0.1, 0.33099365, 0.53799438, 0.72399902);fill-opacity:1;fill-rule:nonzero;stroke:none"
         transform="matrix(1.3333333,0,0,-1.3333333,440.66933,227.20107)"
         clip-path="url(#clipPath38)" />
      <path
         id="path39"
         d="m 0,0 c -11.206,-7.398 -22.504,-14.939 -33.879,-22.431 -30.447,-20.12 -61.096,-40.797 -91.397,-61.067 -2.957,-1.976 -6.235,-3.421 -8.511,-5.557 -2.415,-2.247 -4.548,-5.71 -6.832,-8.659 -2.293,-2.963 -4.769,-5.876 -7.032,-8.677 -33.065,-40.344 -63.704,-82.409 -90.553,-128.341 -0.17,-0.285 -0.186,-0.39 -0.186,-0.39 0.109,0 0.377,0.26 0.598,0.39 40.255,42.591 88.928,76.413 147.247,100.152 C -60.396,-89.828 -29.59,-44.588 0,0"
         style="fill:#5489b9 icc-color(sRGB-IEC61966-2, 0.1, 0.33099365, 0.53799438, 0.72399902);fill-opacity:1;fill-rule:nonzero;stroke:none"
         transform="matrix(1.3333333,0,0,-1.3333333,568.52,587.2296)"
         clip-path="url(#clipPath40)" />
    </g>
  </g>
</svg>
