<?xml version="1.0" encoding="UTF-8"?>
<!-- Created with Inkscape (http://www.inkscape.org/) -->
<svg width="21.182mm" height="10mm" version="1.1" viewBox="0 0 21.182 10" xmlns="http://www.w3.org/2000/svg">
 <g transform="translate(89.429 11.642)">
  <g>
   <path d="m-78.467-3.876c-0.05754-0.045943-0.1201-0.085251-0.1865-0.11714-0.06981-0.031112-0.14552-0.046612-0.22196-0.045497-0.07137-0.00217-0.14195 0.016002-0.20345 0.052411-0.06194 0.041204-0.11753 0.091328-0.16487 0.14876l-0.5071 0.57875c-0.06183 0.067855-0.10538 0.15032-0.1264 0.23969v-1.7132c0.0028-0.066573-0.01015-0.13287-0.03775-0.19347-0.02381-0.046556-0.05843-0.086756-0.10097-0.11714-0.04165-0.028658-0.08893-0.048117-0.13872-0.057038-0.05079-0.00992-0.10242-0.014831-0.15411-0.014608-0.04795-3.237e-4 -0.09579 0.00229-0.14335 0.00769-0.02598 0.00151-0.0518 0.00541-0.07711 0.011542v3.3709h0.65045v-1.1521c0.01227 0.089321 0.0494 0.17346 0.10711 0.24276l0.53024 0.71206c0.11469 0.16665 0.30922 0.25993 0.51095 0.2451 0.07165 7.242e-4 0.14301-0.010203 0.21115-0.032394 0.05944-0.016783 0.11586-0.04282 0.16727-0.077055l-0.89399-1.1914z"/>
   <path d="m-77.693-3.1015c-0.0073-0.13666 0.03451-0.27142 0.11792-0.37992 0.07862-0.09183 0.19526-0.14218 0.31597-0.13643 0.15411 0 0.25893 0.047783 0.31753 0.14335 0.06367 0.11369 0.0944 0.24282 0.0886 0.37301zm1.203-0.64275c-0.08274-0.097127-0.18662-0.17407-0.30359-0.22503-0.14379-0.059492-0.2984-0.088094-0.45396-0.083968-0.13682 2.832e-4 -0.2727 0.022916-0.40228 0.067019-0.13052 0.044883-0.25023 0.11653-0.35143 0.21042-0.10722 0.10164-0.1918 0.22481-0.24811 0.36141-0.06696 0.16459-0.09975 0.341-0.09635 0.51864-0.0066 0.2083 0.02933 0.41572 0.1056 0.60964 0.0605 0.14803 0.15472 0.28001 0.2751 0.38533 0.11185 0.094952 0.24349 0.1637 0.38533 0.20111 0.14413 0.038081 0.29255 0.05754 0.44159 0.057819 0.14602 0.00257 0.29172-0.016113 0.43233-0.055477 0.10176-0.026595 0.19805-0.070977 0.28441-0.13103 0.07036-0.038304 0.11714-0.10906 0.12484-0.18884-0.0056-0.065513-0.02704-0.12874-0.06245-0.18416-0.0349-0.064231-0.07482-0.12556-0.11943-0.18344l-0.09479 0.079397c-0.03825 0.032728-0.08012 0.060886-0.12489 0.084024-0.05141 0.027153-0.10571 0.048619-0.1618 0.063952-0.06852 0.018846-0.13933 0.027934-0.21042 0.02693-0.2073 0-0.35912-0.058544-0.45391-0.17491-0.09919-0.125-0.15612-0.27828-0.16258-0.43774h1.4049c0.0044-0.021076 7e-3 -0.04243 0.0078-0.063952l0.0046-0.084024v-0.14798c6.72e-4 -0.13025-0.01695-0.25993-0.05241-0.38533-0.03362-0.11692-0.09077-0.22576-0.16805-0.31982"/>
   <path d="m-73.849-3.5655c-0.02699-0.13872-0.10136-0.26378-0.21037-0.35372-0.10789-0.088652-0.2751-0.13409-0.50169-0.13409-0.15684-0.00742-0.31296 0.024923-0.45391 0.094004-0.09624 0.049121-0.18082 0.1182-0.24817 0.20267-0.01288-0.083745-0.06579-0.15595-0.14179-0.19342-0.08302-0.038304-0.17374-0.056982-0.26512-0.054752h-0.09016c-0.0257 0-0.04806 0.00234-0.06707 0.00697l-0.05776 0.00926v2.2642h0.65502v-1.5491c0.0044-0.0804 0.05353-0.15154 0.12718-0.18416 0.09222-0.052411 0.19682-0.079062 0.30287-0.077055 0.06663-0.0034 0.13309 0.00875 0.1942 0.035461 0.04371 0.021522 0.07895 0.057094 0.10019 0.10092 0.02202 0.048675 0.03507 0.10086 0.03853 0.15416 0.0046 0.060886 7e-3 0.12634 7e-3 0.19576v1.324h0.65039v-1.3487c0-0.082463 0-0.16721-0.0069-0.25352-0.0047-0.080345-0.01555-0.16019-0.03239-0.23891"/>
   <path d="m-72.022-2.3255c-0.0093 0.00998-0.02548 0.023864-0.04778 0.043155-0.02548 0.021466-0.05342 0.03981-0.08324 0.054697-0.03563 0.018622-0.07243 0.034792-0.11023 0.048563-0.04087 0.014274-0.08386 0.021577-0.12712 0.021577-0.18138 0-0.27209-0.11151-0.27209-0.33448v-1.0211h0.66896v-0.48708h-0.66896v-0.33442c0.0026-0.066907-0.01059-0.13342-0.03853-0.19425-0.02325-0.046612-0.05765-0.086868-0.10014-0.11714-0.04165-0.028658-0.08899-0.048062-0.13872-0.056983-0.05079-0.00987-0.10242-0.014831-0.15416-0.014664h-0.07706c-0.02542 0-0.04934 0.00463-0.0717 0.00769l-0.07165 0.00926v2.221c0 0.069862 0.0031 0.14 0.0093 0.21037 6e-3 0.068357 0.02046 0.13565 0.04316 0.20039 0.0431 0.12244 0.12411 0.22799 0.23122 0.30136 0.13883 0.08447 0.30013 0.12456 0.46238 0.1148 0.0949 8.942e-4 0.18957-0.00948 0.28207-0.030833 0.07661-0.017006 0.15048-0.044493 0.21962-0.081683 0.05336-0.027488 0.10114-0.064565 0.14101-0.10945 0.031-0.033398 0.04884-0.076943 0.05013-0.1225-0.0013-0.050069-0.01422-0.09919-0.03775-0.14335-0.03217-0.063952-0.06847-0.12579-0.10867-0.18494"/>
   <path d="m-71.08-3.9354c-0.0421-0.027543-0.08921-0.046389-0.13872-0.055477-0.05085-0.00931-0.10242-0.013939-0.15411-0.013883-0.04789-1.618e-4 -0.09573 0.00217-0.14335 0.00697-0.02598 0.00145-0.0518 0.0053-0.07705 0.011541v1.9128c0 0.15957 0.03931 0.26512 0.11714 0.31753 0.09116 0.055644 0.19693 0.082519 0.30359 0.077055 0.05091 0 0.09941 0 0.14335-0.00463 0.02938-4.05e-5 0.0586-0.00496 0.08631-0.014608v-1.929c0.0027-0.066628-0.01054-0.13292-0.03853-0.19342-0.02225-0.046277-0.05626-0.085864-0.09863-0.11486"/>
   <path d="m-69.144-2.9775 0.77913-0.89856c-0.05832-0.04611-0.12166-0.085418-0.18884-0.11714-0.07003-0.031167-0.14602-0.046723-0.22269-0.045497-0.07115-0.00206-0.14145 0.016114-0.20267 0.052411-0.06211 0.041036-0.11776 0.091161-0.16493 0.14876l-0.5071 0.57875c-0.06128 0.067632-0.10398 0.14993-0.12411 0.23891v-1.7124c0.0026-0.066573-0.01059-0.13287-0.03847-0.19342-0.02353-0.0465-0.05787-0.0867-0.10019-0.11714-0.04171-0.028658-0.08899-0.048117-0.13872-0.057038-0.05079-0.00992-0.10242-0.014831-0.15416-0.014608-0.04789-3.237e-4 -0.09573 0.00229-0.14335 0.00769-0.02598 0.00145-0.0518 0.0053-0.07705 0.011542v3.3709h0.65045v-1.1521c0.01249 0.087816 0.04906 0.1705 0.10554 0.23891l0.53024 0.71206c0.11391 0.16838 0.30894 0.26322 0.51173 0.24895 0.07126 2.427e-4 0.14207-0.011263 0.20964-0.033956 0.0596-0.016782 0.11631-0.04282 0.16799-0.077055z"/>
   <path d="m-71.285-5.0999c-0.09272-0.00212-0.18243 0.033119-0.24889 0.097908-0.06746 0.065792-0.10415 0.15701-0.10097 0.25124-0.0035 0.093335 0.03334 0.18372 0.10097 0.24811 0.14023 0.12763 0.3545 0.12763 0.49478 0 0.06864-0.063841 0.10605-0.15444 0.10248-0.24811 0.0032-0.094562-0.03401-0.186-0.10248-0.25124-0.06585-0.063785-0.15422-0.098967-0.24588-0.097908"/>
  </g>
  <g fill="#de511e">
   <path d="m-81.73-3.6441c-0.06585-0.063729-0.15422-0.098911-0.24588-0.097852-0.09278-0.00245-0.1826 0.032896-0.24889 0.097852-0.06746 0.065848-0.10415 0.15701-0.10097 0.25124-0.0035 0.093335 0.03334 0.18372 0.10097 0.24817 0.06679 0.063952 0.15651 0.098409 0.24889 0.095565 0.09133 0.00156 0.17959-0.032728 0.24588-0.095565 0.06864-0.063896 0.10605-0.1545 0.10248-0.24817 0.0032-0.094562-0.03407-0.18595-0.10248-0.25124"/>
   <path d="m-82.976-3.3951 1.2006-1.6045c-0.05169-0.033621-0.10806-0.059603-0.16721-0.077055-0.06758-0.024031-0.13866-0.036799-0.21037-0.037747-0.09852-0.00295-0.19643 0.016002-0.2867 0.055477-0.08687 0.046333-0.16242 0.11134-0.22118 0.19035l-1.0959 1.4735 1.0959 1.4696c0.0591 0.080679 0.13577 0.14681 0.22425 0.19342 0.09027 0.039476 0.18818 0.058432 0.2867 0.055533 0.07036 3.237e-4 0.14039-0.010538 0.2073-0.032394 0.05916-0.017452 0.11553-0.043434 0.16721-0.077055z"/>
   <path d="m-82.915-4.9997c-0.05168-0.033621-0.10806-0.059603-0.16721-0.077055-0.06763-0.023919-0.13866-0.036687-0.21037-0.037747-0.09852-0.00295-0.19643 0.016002-0.2867 0.055477-0.08809 0.04611-0.16493 0.11112-0.22503 0.19035l-1.092 1.4735 1.092 1.4696c0.05932 0.080735 0.13632 0.14686 0.22503 0.19342 0.09027 0.039476 0.18818 0.058432 0.2867 0.055533 0.07137 6.15e-4 0.14246-0.010315 0.21037-0.032394 0.05916-0.017452 0.11553-0.043434 0.16721-0.077055l-1.2006-1.6091z"/>
  </g>
  <g fill="#113554" fill-rule="evenodd">
   <path d="m-82.808-8.1683c-0.10984 0.12021-0.20039 0.29383-0.18494 0.54083 0.01383 0.21611 0.11112 0.37005 0.2397 0.4858 0.13649 0.12099 0.30381 0.19699 0.53738 0.1889 0.21734-0.00842 0.37485-0.11146 0.48942-0.23574 0.12244-0.13231 0.19844-0.3017 0.18968-0.53777-0.0093-0.22983-0.11759-0.37635-0.23663-0.48954-0.11887-0.11363-0.30588-0.20585-0.53665-0.18896-0.22475 0.016336-0.38656 0.11385-0.49796 0.23646m1.272-0.4199c2.43e-4 -0.072148 4.05e-4 -0.14463 4.05e-4 -0.21656 0.14524 4.455e-4 0.29121 4.455e-4 0.43702 4.455e-4 -0.0011 0.75103-2e-3 1.5025-3e-3 2.2541-0.1458 0-0.29166 0-0.43674-7.242e-4 0-0.070977 1.62e-4 -0.14173 2.84e-4 -0.21254-0.13498 0.092109-0.28146 0.18026-0.46562 0.2199-0.20111 0.04388-0.4306 0.031112-0.6093-0.024812-0.32257-0.10042-0.5922-0.34736-0.72513-0.65887-0.16214-0.37697-0.08079-0.83188 0.10532-1.1026 0.18121-0.26356 0.47783-0.48831 0.88741-0.51156 0.36899-0.021745 0.60462 0.10153 0.8093 0.25324"/>
   <path d="m-74.311-8.0015c-0.14458 0.00864-0.30643 6.138e-4 -0.45742 0.00357-0.08397-0.12813-0.16543-0.23306-0.29629-0.30967-0.12824-0.074378-0.30437-0.11569-0.50119-0.08079-0.30208 0.05386-0.54797 0.29841-0.58611 0.6209-0.04639 0.38394 0.17519 0.65418 0.43189 0.7672 0.15299 0.066573 0.35583 0.074044 0.51725 0.024421 0.20156-0.062447 0.32907-0.19464 0.42949-0.36487 0.154 2.792e-4 0.30805 2.792e-4 0.46127 2.792e-4 -0.15333 0.40328-0.40702 0.69266-0.83104 0.79787-0.51864 0.12807-0.93581-0.10058-1.175-0.37881-0.12328-0.1443-0.22581-0.32952-0.25932-0.55366-0.08196-0.53849 0.16638-0.9144 0.46238-1.1382 0.15651-0.11898 0.36643-0.20607 0.60579-0.22024 0.34652-0.01957 0.58839 0.092109 0.77763 0.23791 0.19576 0.15104 0.33448 0.34312 0.42068 0.59408"/>
   <path d="m-76.799-8.0451c-0.18461 0-0.36894 0-0.55366-5.579e-4 -0.0052-0.19353-0.1492-0.31686-0.33643-0.32907-0.16548-0.011486-0.40925 0.081571-0.37356 0.2843 0.02275 0.12378 0.20223 0.18422 0.32433 0.22882 0.14084 0.051128 0.2799 0.097294 0.40524 0.14887 0.25107 0.10393 0.52901 0.23451 0.5328 0.56983 2e-3 0.11831-0.03685 0.23601-0.08876 0.31664-0.16258 0.25425-0.5909 0.45792-1.0392 0.36002-0.18845-0.041092-0.34067-0.13275-0.46512-0.25737-0.12233-0.12305-0.2097-0.27911-0.19554-0.52149 0.17764 0 0.3555 0 0.53325 7.809e-4 -0.01684 0.22815 0.16002 0.35762 0.38081 0.35762 0.16443-5.584e-4 0.36364-0.088763 0.34463-0.25274-0.01249-0.1143-0.19052-0.18656-0.28759-0.22447-0.35634-0.14095-0.82363-0.21717-0.9459-0.58655-0.09445-0.28497 0.06362-0.53487 0.23746-0.6655 0.08129-0.061833 0.16788-0.10582 0.26094-0.14006 0.10292-0.037802 0.21862-0.062781 0.35277-0.063339 0.27248-0.00223 0.47928 0.087704 0.633 0.21265 0.15874 0.12807 0.27086 0.29378 0.28051 0.56163"/>
   <path d="m-73.505-8.1165c-0.10995 0.12004-0.20039 0.29395-0.18483 0.54011 0.01322 0.21695 0.11112 0.37067 0.24031 0.48641 0.13566 0.12132 0.30342 0.19715 0.53682 0.18901 0.21723-0.00836 0.3744-0.11179 0.4897-0.23579 0.12194-0.13158 0.19844-0.30231 0.18912-0.53771-0.0085-0.22994-0.11759-0.37685-0.2359-0.48909-0.11943-0.11335-0.3061-0.20624-0.53754-0.18946-0.22447 0.016225-0.38628 0.11385-0.49768 0.23652m0.45815-0.66924c0.38159-0.026149 0.67364 0.11525 0.86589 0.29751 0.19804 0.18806 0.35678 0.4204 0.38054 0.77835 0.02492 0.37892-0.11307 0.66389-0.29417 0.86193-0.18689 0.20474-0.43044 0.35349-0.77858 0.38031-0.36576 0.027766-0.66244-0.108-0.86188-0.294-0.2005-0.18645-0.36403-0.42386-0.38812-0.77044-0.02637-0.39219 0.11865-0.66985 0.29428-0.86985 0.17452-0.19899 0.42118-0.35935 0.78203-0.38382"/>
   <path d="m-69.923-8.3491c0.16515-0.20886 0.37284-0.36297 0.71039-0.37574 0.36342-0.014608 0.58103 0.13493 0.74936 0.3376 0.08826 0.10493 0.14686 0.21143 0.18394 0.36057 0.03652 0.1477 0.03212 0.32221 0.032 0.50961-1e-3 0.35394-0.0013 0.72817-0.0016 1.0829-0.14469 0-0.28882-5.018e-4 -0.43322-5.018e-4 5.02e-4 -0.38773 0.0011-0.7982 0.0012-1.1869 6.15e-4 -0.2029-0.01065-0.36018-0.11134-0.48173-0.08598-0.10281-0.21276-0.1894-0.40066-0.18868-0.26646 5.58e-4 -0.44794 0.17814-0.49773 0.39258-0.01929 0.080735-0.01266 0.17429-0.01305 0.27989-4.05e-4 0.3889-7.28e-4 0.79781-0.0015 1.1836-0.14363-7.242e-4 -0.28876-7.242e-4 -0.43278-7.242e-4 4.97e-4 -0.3875 9.99e-4 -0.7982 0.0014-1.1868 4.04e-4 -0.20278-0.0096-0.36085-0.11112-0.48168-0.08698-0.10343-0.21182-0.18935-0.40127-0.18885-0.26367 6.138e-4 -0.44956 0.17836-0.49757 0.3928-0.01812 0.079619-0.01249 0.17429-0.01277 0.27978-2.43e-4 0.38862-6.15e-4 0.79787-0.0015 1.1835-0.1443-5.584e-4 -0.28815-5.584e-4 -0.43294-5.584e-4 0.0011-0.75109 0.0023-1.5023 0.0029-2.2538 0.14485 5.009e-4 0.28876 5.009e-4 0.43328 5.009e-4 0 0.044437 0 0.08815-4.41e-4 0.13248 0.11798-0.080344 0.26283-0.15517 0.4533-0.16755 0.38639-0.02654 0.64276 0.14926 0.78175 0.37752"/>
   <path d="m-80.547-5.9866 1.9602-2.806c-0.18349-4.455e-4 -0.36654-4.455e-4 -0.54947-0.00117-0.34914 0.48731-1.1127 1.5852-1.1127 1.5852 6.15e-4 -0.52377 0.0011-1.0625 0.0018-1.5862-0.14357 0-0.28642-9.479e-4 -0.42943-9.479e-4 -4e-3 9.479e-4 -4e-3 0.00641-4e-3 0.012545-7.24e-4 0.61443-0.0017 1.2849-0.0025 1.9124 0 0.091774-3.24e-4 0.27655-3.24e-4 0.27655-0.0016 0.00736-0.17518 0.27778-0.40975 0.60718z"/>
  </g>
  <g fill="#5187b8">
   <path d="m-84.49-8.8398c-0.1797 0.11335-0.35689 0.24031-0.53548 0.36476-0.17964 0.12473-0.36314 0.24321-0.53827 0.36754l-0.0062 0.00624c-0.02877 0.031614-0.05102 0.086477-0.07889 0.1298-0.40986 0.63768-0.82134 1.2925-1.2165 1.9305 3.36e-4 0.00346-0.0042 0.0048 0 0.00608 1.14e-4 -0.00151 3.36e-4 -0.00318 0.0022-0.00318 0 0 5.01e-4 0 8.92e-4 1.214e-4 0.51569-0.17251 1.1469-0.30197 1.8197-0.30197 0.16961 0 0.34201 0.00831 0.51591 0.026149 0.15015-0.35071 0.28954-0.75756 0.31329-1.2455 0.02581-0.5245-0.10164-0.94211-0.27655-1.2805"/>
   <path d="m-85.272-8.5609c0.22748-0.13231 0.46099-0.25882 0.6902-0.38962 0.0065 0.00184 0.0016-0.022748-6e-3 -0.044939-0.0037-0.011486-0.0082-0.021689-0.01215-0.028101-0.06395-0.10042-0.13889-0.20496-0.20368-0.27878"/>
   <path d="m-87.395-11.642c0.28447 0.23713 0.54412 0.50777 0.72399 0.84933 0.08982 0.17072 0.16565 0.37847 0.1947 0.59921 0.03089 0.23406 0.01266 0.50788-0.0184 0.75137-0.11948 0.93609-0.54083 1.5947-0.93659 2.2249 0.14335-0.097406 0.29255-0.18639 0.44097-0.2756 0.44806-0.27003 0.89276-0.54106 1.3382-0.81164 0.22286-0.3143 0.44995-0.64287 0.66288-0.96341 0.0089-0.013158 0.08497-0.13019 0.09189-0.13599-0.03875-0.058711-0.08525-0.10003-0.13125-0.15255-0.04706-0.053303-0.09964-0.099524-0.14926-0.14892-0.09913-0.099301-0.19526-0.20111-0.29489-0.30125-0.5938-0.59586-1.2428-1.1409-1.9222-1.6354"/>
   <path d="m-86.027-7.7875c-0.15996 0.1056-0.32121 0.21321-0.48357 0.32015-0.43462 0.2872-0.87208 0.58232-1.3046 0.87169-0.04221 0.028157-0.08899 0.048787-0.12149 0.079285-0.03446 0.03206-0.0649 0.081515-0.09752 0.12361-0.03273 0.042263-0.06802 0.083857-0.10036 0.12383-0.47192 0.57585-0.90927 1.1763-1.2925 1.8319-0.0025 0.00407-0.0027 0.00558-0.0027 0.00558 0.0016 0 0.0054-0.00368 0.0085-0.00558 0.57456-0.60791 1.2693-1.0906 2.1017-1.4295 0.43032-0.6388 0.87007-1.2845 1.2924-1.921"/>
  </g>
 </g>
</svg>
