<?xml version="1.0" encoding="UTF-8" standalone="no"?>
<!-- Created with Inkscape (http://www.inkscape.org/) -->

<svg
   width="20mm"
   height="10mm"
   viewBox="0 0 20 10"
   version="1.1"
   id="svg1"
   inkscape:version="1.3 (0e150ed6c4, 2023-07-21)"
   sodipodi:docname="DE-CIX_2x1.svg"
   xmlns:inkscape="http://www.inkscape.org/namespaces/inkscape"
   xmlns:sodipodi="http://sodipodi.sourceforge.net/DTD/sodipodi-0.dtd"
   xmlns="http://www.w3.org/2000/svg"
   xmlns:svg="http://www.w3.org/2000/svg">
  <sodipodi:namedview
     id="namedview1"
     pagecolor="#ffffff"
     bordercolor="#000000"
     borderopacity="0.25"
     inkscape:showpageshadow="2"
     inkscape:pageopacity="0.0"
     inkscape:pagecheckerboard="0"
     inkscape:deskcolor="#d1d1d1"
     inkscape:document-units="mm"
     inkscape:zoom="5.8457335"
     inkscape:cx="32.758934"
     inkscape:cy="12.82987"
     inkscape:window-width="1866"
     inkscape:window-height="1270"
     inkscape:window-x="989"
     inkscape:window-y="55"
     inkscape:window-maximized="0"
     inkscape:current-layer="layer1" />
  <defs
     id="defs1" />
  <g
     inkscape:label="Capa 1"
     inkscape:groupmode="layer"
     id="layer1">
    <path
       d="m 7.626355,4.8236884 c 0.79581,0 2.38786,-0.76744 2.38786,-0.76744 v -0.009 c -0.43969,0 -0.79567,-0.34766 -0.79567,-0.7762 0,-0.11659 0.0268,-0.22711 0.0744,-0.32662 0.15964,-0.3653 0.56714,-0.77111 1.1285,-1.44087 0.53398,-0.63758 1.12822,-1.23987 0.50038,-1.43692 -0.98453,-0.30912 -2.45772,0.48019 -3.44056,1.89086 -0.58,0.83237 -0.73823,1.49437 -0.73823,1.99602 0,0.34625 0.16205,0.86992 0.88333,0.86992"
       fill="#c20e1a"
       id="path1"
       style="stroke-width:0.141151" />
    <path
       d="m 12.402215,1.7191984 c -0.79609,0 -2.388,0.7673 -2.388,0.7673 v 0.009 c 0.43969,0 0.79595,0.34766 0.79595,0.77633 0,0.11645 -0.0272,0.22698 -0.0747,0.32649 -0.15964,0.36544 -0.56701,0.77125 -1.12851,1.44101 -0.53383,0.63744 -1.12808,1.23973 -0.50037,1.43692 0.98453,0.30884 2.45786,-0.48034 3.44056,-1.891 0.57999,-0.83252 0.73822,-1.49437 0.73822,-1.99588 0,-0.34625 -0.1619,-0.86992 -0.88318,-0.86992 m -6.8865,5.75926 c 0.25831,0 0.46665,0.0271 0.6246,0.0813 0.15794,0.0542 0.28611,0.14313 0.38365,0.26635 a 0.73398734,0.73398734 0 0 1 0.10163,0.1684 c 0.0299,0.0666 0.0565,0.14059 0.079,0.22118 0.0226,0.0808 0.0395,0.16586 0.0508,0.25549 0.0113,0.0892 0.0168,0.18067 0.0168,0.27383 0,0.11081 -0.009,0.22697 -0.0282,0.3478 a 1.8201474,1.8201474 0 0 1 -0.0769,0.32126 c -0.0476,0.14115 -0.11489,0.25407 -0.20142,0.33834 -0.0865,0.0847 -0.19733,0.14793 -0.33312,0.19098 -0.0347,0.0127 -0.0713,0.0219 -0.10883,0.0285 -0.0377,0.006 -0.0797,0.012 -0.12619,0.0169 -0.0462,0.005 -0.10106,0.008 -0.16345,0.009 -0.0628,0.002 -0.13551,0.002 -0.21836,0.002 H 4.543725 V 7.4783684 Z m -0.43799,2.07196 h 0.43799 c 0.11787,0 0.21893,-0.0139 0.30277,-0.0414 0.0841,-0.0279 0.14877,-0.0697 0.1938,-0.12493 0.0528,-0.0656 0.0947,-0.15639 0.12619,-0.27242 0.031,-0.11574 0.0469,-0.23925 0.0469,-0.37038 0,-0.15357 -0.0205,-0.29345 -0.062,-0.41964 -0.0416,-0.12591 -0.0971,-0.2178 -0.1674,-0.2761 a 0.44222737,0.44222737 0 0 0 -0.17701,-0.0906 c -0.0675,-0.0175 -0.1554,-0.0265 -0.26324,-0.0265 h -0.438 z m 3.88787,0.011 h -0.68444 c -0.15202,-0.002 -0.31406,-0.0358 -0.425,-0.14779 -0.11519,-0.11617 -0.15894,-0.28273 -0.16882,-0.44208 h 1.07035 v -0.4634 h -1.07035 c 0.01,-0.15936 0.0536,-0.32578 0.16882,-0.44181 0.11094,-0.11207 0.27298,-0.14609 0.425,-0.14807 h 0.68444 v -0.43883 h -0.70872 c -0.24532,0 -0.50306,0.026 -0.71197,0.16571 -0.19408,0.12986 -0.32168,0.32027 -0.38675,0.54343 a 1.7178126,1.7178126 0 0 0 -0.0683,0.43545 c -0.002,0.0387 -0.003,0.0772 -0.002,0.11589 -0.002,0.0387 -10e-4,0.0771 0.002,0.11574 0.006,0.24038 0.0556,0.50363 0.18745,0.70787 0.12309,0.19141 0.32183,0.34174 0.54442,0.39297 0.14172,0.0325 0.28993,0.0438 0.43517,0.0438 h 0.70858 z m 2.01367,-1.64442 c 0.0216,-0.002 0.043,-0.006 0.0648,-0.006 h 0.78212 v -0.43192 h -0.77506 c -0.14228,0 -0.27892,0.013 -0.41061,0.0387 -0.13155,0.0258 -0.25563,0.0854 -0.37208,0.17912 -0.13974,0.11476 -0.2377,0.25464 -0.29345,0.41965 -0.043,0.12675 -0.0706,0.25619 -0.0833,0.38774 h 0.30404 v 0.4706 h -0.30404 c 0.0127,0.13156 0.0402,0.26099 0.0833,0.38803 0.0558,0.16472 0.15371,0.3046 0.29345,0.41921 0.11645,0.0939 0.24053,0.15343 0.37208,0.17926 0.13155,0.0258 0.26833,0.0385 0.41061,0.0385 h 0.77506 V 9.5684984 h -0.78212 c -0.0217,0 -0.0432,-0.004 -0.0648,-0.006 -0.19959,-0.0209 -0.3317,-0.10333 -0.3965,-0.2473 -0.0741,-0.16529 -0.11461,-0.35725 -0.12209,-0.57561 0.007,-0.21879 0.048,-0.41076 0.12209,-0.5759 0.0649,-0.14398 0.19691,-0.22641 0.39664,-0.2473 m 4.4769,-0.43729 h -0.66736 l -0.50321,0.78057 -0.50306,-0.78057 h -0.66722 l 0.84309,1.26034 -0.84309,1.26034 h 0.66736 l 0.50292,-0.78057 0.50321,0.78057 h 0.66736 l -0.8431,-1.26048 z m -3.2143,2.52054 h 0.55218 v -2.52054 h -0.55218 z"
       fill="#1c3f4d"
       id="path2"
       style="stroke-width:0.141151" />
  </g>
</svg>
