<?xml version="1.0" encoding="UTF-8" standalone="no"?>
<!-- Created with Inkscape (http://www.inkscape.org/) -->

<svg
   width="20mm"
   height="10mm"
   viewBox="0 0 20 10"
   version="1.1"
   id="svg1"
   inkscape:version="1.3 (0e150ed6c4, 2023-07-21)"
   sodipodi:docname="ISOC_2x1.svg"
   xmlns:inkscape="http://www.inkscape.org/namespaces/inkscape"
   xmlns:sodipodi="http://sodipodi.sourceforge.net/DTD/sodipodi-0.dtd"
   xmlns="http://www.w3.org/2000/svg"
   xmlns:svg="http://www.w3.org/2000/svg">
  <sodipodi:namedview
     id="namedview1"
     pagecolor="#ffffff"
     bordercolor="#000000"
     borderopacity="0.25"
     inkscape:showpageshadow="2"
     inkscape:pageopacity="0.0"
     inkscape:pagecheckerboard="0"
     inkscape:deskcolor="#d1d1d1"
     inkscape:document-units="mm"
     inkscape:zoom="5.8457335"
     inkscape:cx="32.758934"
     inkscape:cy="12.82987"
     inkscape:window-width="1866"
     inkscape:window-height="1270"
     inkscape:window-x="989"
     inkscape:window-y="55"
     inkscape:window-maximized="0"
     inkscape:current-layer="layer1" />
  <defs
     id="defs1" />
  <g
     inkscape:label="Capa 1"
     inkscape:groupmode="layer"
     id="layer1">
    <path
       id="path2"
       d="m 18.704292,5.8938256 h -0.273675 c -0.04024,0 -0.08404,0.028247 -0.0997,0.063903 L 17.893027,6.965242 17.413014,5.9564115 c -0.01609,-0.034339 -0.06237,-0.062586 -0.101653,-0.062586 l -0.288234,4.704e-4 c -0.03629,0 -0.05306,0.026648 -0.0374,0.059364 l 0.704839,1.474497 -0.368836,0.8403156 c -0.01672,0.035766 0.0027,0.065028 0.04184,0.065028 h 0.277533 c 0.03963,0 0.08432,-0.029262 0.10064,-0.065028 l 1.004809,-2.3107437 c 0.01682,-0.035656 -0.0024,-0.063903 -0.04227,-0.063903 z m -3.542208,0.6570652 c -0.06204,-0.1987603 -0.249897,-0.3431665 -0.449532,-0.3431665 -0.218592,0 -0.412371,0.1388579 -0.482271,0.3431665 z m 0.370388,0.2105295 c 0,0.00818 0,0.026883 -0.0011,0.049227 -0.0012,0.026909 -0.03582,0.048968 -0.07557,0.048968 h -1.220579 c 0.03072,0.2580816 0.251849,0.4549674 0.515458,0.4549674 0.201446,0 0.328688,-0.081216 0.433915,-0.1875508 0.02742,-0.028812 0.07103,-0.030851 0.09939,-0.0038 l 0.156218,0.1491572 c 0.02914,0.027019 0.03229,0.074492 0.0061,0.1025483 -0.112354,0.1214039 -0.328641,0.2906987 -0.6995,0.2906987 -0.511624,0 -0.897747,-0.388616 -0.897747,-0.9042125 0,-0.5243693 0.356747,-0.9037915 0.846851,-0.9037915 0.477732,0 0.836548,0.387607 0.836548,0.9037915 z M 13.322867,3.3732429 c -0.06357,-0.1980359 -0.24992,-0.3434111 -0.450661,-0.3434111 -0.218545,0 -0.410348,0.1396835 -0.481142,0.3434111 z m 0.369965,0.2114421 c 0,0.0076 -6.82e-4,0.027518 -6.82e-4,0.049203 -0.0028,0.026883 -0.03711,0.048098 -0.07613,0.048098 h -1.220391 c 0.03001,0.2577524 0.25192,0.4557177 0.515505,0.4557177 0.201776,0 0.329206,-0.08072 0.433892,-0.1882752 0.02655,-0.028459 0.07108,-0.031187 0.09935,-0.00355 l 0.156571,0.1491385 c 0.02815,0.027541 0.03154,0.074369 0.0045,0.1031338 -0.110472,0.1213382 -0.326994,0.2905859 -0.697994,0.2905859 -0.511083,0 -0.898053,-0.3884984 -0.898053,-0.9040502 0,-0.5243482 0.356959,-0.905038 0.847415,-0.905038 0.476651,0 0.836008,0.388663 0.836008,0.905038 z m -0.315823,1.4959235 c -0.139283,0 -0.248156,0.1106837 -0.248156,0.2518489 0,0.1398011 0.108873,0.2498028 0.248156,0.2498028 0.14213,0 0.252414,-0.1100017 0.252414,-0.2498028 0,-0.1380841 -0.113577,-0.2518489 -0.252414,-0.2518489 z m 2.68174,-2.3983509 c -0.22927,0 -0.358158,0.09422 -0.444522,0.1624271 v -0.064844 c 0,-0.035632 -0.0317,-0.064373 -0.07188,-0.064373 h -0.239995 c -0.03977,0 -0.07127,0.031116 -0.07127,0.070583 V 4.381486 c 0,0.039842 0.03149,0.071241 0.07127,0.071241 h 0.251214 c 0.03996,0 0.07119,-0.031399 0.07119,-0.071241 V 3.2790465 c 0.08815,-0.1044745 0.200223,-0.224425 0.420814,-0.224425 0.127595,0 0.214288,0.057459 0.290022,0.1555593 0.04996,0.06435 0.09431,0.1476097 0.09431,0.3745042 v 0.7968004 c 0,0.039842 0.0317,0.071241 0.07051,0.071241 h 0.252366 c 0.04001,0 0.07056,-0.031399 0.07056,-0.071241 V 3.6022072 c 0,-0.2801902 -0.03725,-0.4770736 -0.155959,-0.6287992 C 16.514232,2.7779358 16.309046,2.6822576 16.058749,2.6822576 Z M 18.39562,3.3732429 C 18.332587,3.175207 18.145605,3.0298318 17.945147,3.0298318 c -0.217981,0 -0.410701,0.1396835 -0.481872,0.3434111 z m 0.370552,0.2114421 c 0,0.0076 -0.0011,0.027518 -0.0024,0.049203 -0.0019,0.026883 -0.03516,0.048098 -0.07517,0.048098 h -1.220297 c 0.02978,0.2577524 0.251614,0.4557177 0.514094,0.4557177 0.202105,0 0.329393,-0.08072 0.434503,-0.1882752 0.02742,-0.028459 0.07101,-0.031187 0.100053,-0.00355 l 0.155512,0.1491385 c 0.02933,0.027541 0.03177,0.074369 0.0068,0.1031338 -0.1124,0.1213382 -0.329323,0.2905859 -0.700464,0.2905859 -0.510495,0 -0.896147,-0.3884984 -0.896147,-0.9040502 0,-0.5243482 0.3563,-0.905038 0.846686,-0.905038 0.476767,0 0.836783,0.388663 0.836783,0.905038 z m -5.26098,2.3091406 h -0.251261 c -0.0405,0 -0.07223,0.030881 -0.07223,0.069642 V 7.55871 c 0,0.039452 0.03173,0.070559 0.07223,0.070559 h 0.251261 c 0.039,0 0.07056,-0.031107 0.07056,-0.070559 V 5.9634675 c 0,-0.038761 -0.03156,-0.069642 -0.07056,-0.069642 z m 3.230807,0.065761 c -0.0073,-0.026413 -0.03013,-0.065761 -0.07853,-0.065761 l -0.306862,1.882e-4 V 5.4988593 c 0,-0.039184 -0.03255,-0.071006 -0.07183,-0.071006 h -0.251731 c -0.03951,0 -0.07119,0.031822 -0.07119,0.071006 v 0.3951545 h -0.284589 c -0.06103,0 -0.08103,0.029 -0.07103,0.070606 0.01,0.041606 0.03721,0.2165718 0.03721,0.2165718 0.008,0.031044 0.03175,0.070107 0.07103,0.070107 h 0.247381 V 6.995018 c 0,0.2073685 0.04744,0.3592916 0.143093,0.4661581 0.119222,0.1342293 0.290022,0.206082 0.496666,0.206082 0.02458,0 0.05177,-5.88e-4 0.07759,-0.00341 0.03928,-0.00191 0.07131,-0.038761 0.07178,-0.077173 l 0.0026,-0.237429 c 5.88e-4,-0.038194 -0.03055,-0.064846 -0.06983,-0.061906 -0.02583,0.00217 -0.0513,0.00383 -0.0719,0.00383 -0.08763,0 -0.172658,-0.032551 -0.212077,-0.080031 -0.0369,-0.042364 -0.04316,-0.1100275 -0.04316,-0.1974738 V 6.2512992 l 0.394167,-0.00124 c 0.03634,0 0.07886,-0.014636 0.06571,-0.065745 z m 3.193717,-2.886808 c 0.0401,0 0.07077,-0.031164 0.07077,-0.070112 V 2.7860501 c 0,-0.039466 -0.03067,-0.070583 -0.07077,-0.070583 h -0.328124 v -0.395131 c 0,-0.039184 -0.03253,-0.071029 -0.07183,-0.071029 h -0.251684 c -0.03956,0 -0.07127,0.031846 -0.07127,0.071029 v 0.395131 H 18.92229 c -0.06103,0 -0.08105,0.029 -0.07105,0.070583 0.01002,0.041606 0.03721,0.2166164 0.03721,0.2166164 0.008,0.031022 0.03177,0.070112 0.07105,0.070112 h 0.24731 v 0.7436459 c 0,0.2074438 0.04751,0.359334 0.143141,0.4662075 0.119198,0.1342269 0.289974,0.2061031 0.496642,0.2061031 0.02458,0 0.05177,-6.115e-4 0.07757,-0.00341 0.0393,-0.00193 0.07131,-0.038784 0.07181,-0.077192 l 0.0026,-0.2374078 c 6.12e-4,-0.03822 -0.03058,-0.064844 -0.06983,-0.061904 -0.02587,0.00216 -0.05125,0.00383 -0.0719,0.00383 -0.08768,0 -0.172705,-0.032575 -0.2121,-0.080037 -0.03693,-0.042383 -0.04316,-0.1100252 -0.04316,-0.1974949 V 3.0727787 Z M 12.8878,7.1961585 12.699007,7.0602852 c -0.03128,-0.022748 -0.07387,-0.015949 -0.101299,0.013451 -0.124913,0.1458668 -0.272852,0.2170892 -0.437208,0.2170892 -0.3126,0 -0.532439,-0.2187333 -0.532439,-0.529405 0,-0.3011439 0.219839,-0.528577 0.511789,-0.528577 0.195049,0 0.333674,0.1091267 0.417474,0.2099133 0.02547,0.029959 0.06781,0.036187 0.09669,0.011005 l 0.183877,-0.1548349 c 0.03039,-0.025495 0.03664,-0.07178 0.01169,-0.1018873 -0.178726,-0.2185898 -0.439748,-0.3394105 -0.70973,-0.3394105 -0.516258,0 -0.90485,0.387607 -0.90485,0.9037915 0,0.5155965 0.39793,0.9034129 0.9255,0.9034129 0.291197,0 0.586182,-0.1409983 0.74668,-0.3677517 0.02326,-0.032083 0.01202,-0.07813 -0.01938,-0.100923 z M 8.6820775,6.4190252 C 8.5820483,6.3516178 8.4495147,6.3001496 8.3315399,6.2500597 8.1039868,6.1539959 7.9028464,6.0751602 7.9028464,5.8946253 c 0,-0.18804 0.1691066,-0.2894569 0.3479504,-0.2894569 0.1236666,0 0.2473802,0.0421 0.3663899,0.118257 0.030576,0.019474 0.068489,0.019474 0.092197,-0.00927 L 8.852713,5.5364908 C 8.8756917,5.5084083 8.8715052,5.4659553 8.8425289,5.4439643 8.6546536,5.2995534 8.4525723,5.2333219 8.2368731,5.2333219 c -0.407173,0 -0.7264059,0.2802137 -0.7264059,0.6395477 0,0.218451 0.1025224,0.3962176 0.3054033,0.5305362 0.099912,0.065056 0.2161225,0.1135461 0.3287584,0.1592731 0.2360907,0.097367 0.4418411,0.1899498 0.4418411,0.4160588 0,0.1850624 -0.146222,0.307052 -0.3630501,0.307052 -0.2288232,0 -0.395178,-0.1189133 -0.5213847,-0.243777 -0.026178,-0.025074 -0.063033,-0.029263 -0.089939,-0.00379 L 7.4429186,7.206199 c -0.02646,0.025072 -0.028788,0.069035 -0.00435,0.096339 0.2155815,0.2405618 0.4979826,0.3622951 0.8022569,0.3622951 0.4299166,0 0.7423759,-0.2917078 0.7423759,-0.6955034 0,-0.2284892 -0.093538,-0.4129989 -0.3011228,-0.5503046 z M 14.055647,4.4527266 h 0.250673 c 0.03942,0 0.07115,-0.031399 0.07115,-0.071241 V 3.3178775 c 0.09316,-0.1550889 0.268125,-0.263256 0.428741,-0.263256 0.02874,0 0.05809,0.00207 0.08698,0.00572 0.03815,0.00569 0.06851,-0.015029 0.06851,-0.054871 V 2.7583909 c 0,-0.039372 -0.02554,-0.074746 -0.058,-0.076674 -0.02133,-9.173e-4 -0.04194,-0.00207 -0.05859,-0.00207 -0.21711,0 -0.381772,0.086952 -0.477991,0.1842768 v -0.077874 c 0,-0.039466 -0.03217,-0.070583 -0.07129,-0.070583 h -0.240183 c -0.04001,0 -0.07174,0.031116 -0.07174,0.070583 V 4.381485 c 0,0.039842 0.03173,0.071241 0.07174,0.071242 z m -6.4739621,0 h 1.0036796 c 0.039889,0 0.071312,-0.031399 0.071312,-0.071241 V 4.1643751 c 0,-0.039701 -0.031422,-0.071735 -0.071312,-0.071735 H 8.2804551 V 2.4278921 H 8.568054 c 0.038431,0 0.0703,-0.032034 0.0703,-0.071265 V 2.1389996 c 0,-0.04003 -0.031869,-0.0711 -0.0703,-0.0711 H 8.2086965 7.958541 7.595044 c -0.040054,0 -0.072558,0.03107 -0.072558,0.0711 v 0.2176278 c 0,0.039231 0.032504,0.071265 0.072558,0.071265 H 7.888123 V 4.09264 H 7.5816849 c -0.039137,0 -0.071218,0.032034 -0.071218,0.071735 v 0.2171103 c 0,0.039842 0.032081,0.071241 0.071218,0.071241 z M 9.3688998,4.3814854 V 3.2790465 c 0.087235,-0.1044745 0.2007642,-0.224425 0.421379,-0.224425 0.1286762,0 0.2168282,0.055201 0.2888922,0.1555593 0.05471,0.074558 0.09493,0.1476097 0.09493,0.3745042 v 0.7968004 c 0,0.039842 0.03229,0.071241 0.07124,0.071241 h 0.25119 c 0.0393,0 0.07162,-0.031399 0.07162,-0.071241 V 3.6022072 c 0,-0.2801902 -0.0524,-0.4643024 -0.171153,-0.6150872 -0.152431,-0.1950959 -0.347504,-0.307473 -0.5967419,-0.307473 -0.2299286,0 -0.3524427,0.096831 -0.4419587,0.1650377 v -0.064844 c 0,-0.035632 -0.032151,-0.064373 -0.070559,-0.064373 h -0.240494 c -0.040007,0 -0.071335,0.031116 -0.071335,0.070583 V 4.381486 c 0,0.039842 0.031328,0.071241 0.071335,0.071241 h 0.2505318 c 0.039607,0 0.071124,-0.031399 0.071124,-0.071242 z m 1.2498132,2.3798432 c 0,-0.3010522 -0.215699,-0.5290733 -0.504309,-0.5290733 -0.2863056,0 -0.5026162,0.2280211 -0.5026162,0.5290733 0,0.3017766 0.2163106,0.5288616 0.5026162,0.5288616 0.28861,0 0.504309,-0.227085 0.504309,-0.5288616 z m 0.393861,0 c 0,0.5156882 -0.386452,0.9035046 -0.89817,0.9035046 -0.5110598,0 -0.8966653,-0.3878164 -0.8966653,-0.9035046 0,-0.5160928 0.3856055,-0.9036998 0.8966653,-0.9036998 0.511718,0 0.89817,0.387607 0.89817,0.9036998 z m 0.658269,-2.2725934 c -0.20662,0 -0.377444,-0.071876 -0.496618,-0.2061031 C 11.07857,4.1757586 11.031061,4.0238684 11.031061,3.8164246 V 3.0727787 h -0.247334 c -0.03928,0 -0.06303,-0.03909 -0.07103,-0.070112 0,0 -0.02721,-0.1750101 -0.03721,-0.2166164 -0.01,-0.041583 0.01,-0.070583 0.07103,-0.070583 h 0.284542 v -0.395131 c 0,-0.039184 0.03168,-0.071029 0.07126,-0.071029 h 0.251732 c 0.03925,0 0.07176,0.031846 0.07176,0.071029 v 0.395131 h 0.388992 c 0.06103,0 0.08103,0.029 0.07103,0.070583 -0.01,0.041606 -0.03721,0.2166164 -0.03721,0.2166164 -0.008,0.031022 -0.03175,0.070112 -0.07103,0.070112 h -0.351784 v 0.7623441 c 0,0.08747 0.0063,0.1551124 0.04313,0.1974949 0.03947,0.047463 0.124467,0.080037 0.212124,0.080037 0.02065,0 0.0461,-0.00167 0.0719,-0.00383 0.03928,-0.00294 0.07044,0.023684 0.06983,0.061904 l -0.0026,0.2374078 c -5.17e-4,0.038408 -0.03248,0.075263 -0.07176,0.077192 -0.02587,0.0028 -0.05301,0.00341 -0.07761,0.00341 z M 4.1670713,5.8556296 h -0.265655 c -0.048733,0 -0.085588,-0.039443 -0.082672,-0.088105 0.017875,-0.2968656 0.027165,-0.6080783 0.027165,-0.927123 0,-0.044288 -1.882e-4,-0.088434 -5.645e-4,-0.1324159 -4.233e-4,-0.048733 0.038525,-0.088269 0.087282,-0.088269 h 0.2648789 c 0.048756,0 0.088834,0.039537 0.089234,0.088269 3.763e-4,0.044005 5.645e-4,0.088128 5.645e-4,0.1324159 0,0.3180569 -0.00906,0.6290814 -0.026507,0.9270995 -0.00285,0.048662 -0.04497,0.088128 -0.093726,0.088129 z M 3.7456453,6.562606 c -0.00621,0.04838 -0.051132,0.087545 -0.099888,0.087545 h -1.318237 c -0.045854,0 -0.087703,-0.034837 -0.097496,-0.07924 L 2.1698936,6.2954904 c -0.00922,-0.047856 0.023362,-0.086738 0.072121,-0.086738 h 1.4544512 c 0.048756,0 0.0846,0.039323 0.079638,0.087822 -0.00927,0.090744 -0.019427,0.1795047 -0.030458,0.2660316 z M 2.0207458,7.3218219 C 1.8875914,7.2592665 1.7582612,7.1874562 1.6366197,7.1025924 1.5566433,7.0468084 1.4691806,6.9232382 1.4418389,6.8296557 1.3922077,6.659834 1.3492583,6.4812513 1.3133626,6.2954904 c -0.00926,-0.047856 0.023355,-0.086738 0.072111,-0.086738 h 0.2738399 c 0.048747,0 0.095695,0.038807 0.1056081,0.086527 0.070477,0.3395116 0.1653553,0.6501833 0.2819142,0.9139332 0.011541,0.026159 0.023484,0.052663 0.036291,0.07917 0.019009,0.03932 -0.021986,0.052449 -0.062381,0.033439 z M 1.1801541,4.9811437 c -7.08e-4,-0.043982 -0.0011,-0.088152 -0.0011,-0.132463 0,-0.3178922 0.017908,-0.6290108 0.052423,-0.9275699 0.00559,-0.048427 0.050182,-0.087634 0.098931,-0.087634 h 0.2698321 c 0.048749,0 0.082872,0.039137 0.076853,0.087517 -0.037107,0.2989354 -0.056631,0.6114181 -0.056631,0.9276875 0,0.044241 4.14e-4,0.088387 0.00121,0.1324159 8.538e-4,0.048756 -0.037476,0.088293 -0.086242,0.088293 H 1.2703474 c -0.048759,0 -0.089384,-0.03949 -0.090193,-0.088247 z m 2.1256493,0.4330917 c 0.048733,0 0.086858,0.039466 0.084742,0.088175 -0.00383,0.089657 -0.00849,0.1780676 -0.013924,0.265114 -0.00303,0.048662 -0.045299,0.088105 -0.094055,0.088105 H 1.7776838 c -0.048731,0 -0.093665,-0.03916 -0.099684,-0.08754 -0.010878,-0.087564 -0.020248,-0.1762331 -0.028078,-0.2658667 -0.00421,-0.048545 0.032396,-0.087987 0.081143,-0.087987 z M 2.0941978,3.9216047 c 0.00285,-0.048662 0.044963,-0.088128 0.093712,-0.088128 h 0.2656574 c 0.048756,0 0.085659,0.039466 0.082672,0.088105 -0.017875,0.2968656 -0.027165,0.6080548 -0.027165,0.9270995 0,0.044335 2.116e-4,0.088481 6.35e-4,0.1324159 3.763e-4,0.048756 -0.038596,0.088293 -0.087352,0.088293 H 2.1574893 c -0.048747,0 -0.08885,-0.039537 -0.089236,-0.088293 -3.41e-4,-0.043958 -5.621e-4,-0.088105 -5.621e-4,-0.1324159 0,-0.3180569 0.00905,-0.6290579 0.026507,-0.9270765 z M 2.5789035,3.3925055 c 0.00927,-0.090715 0.019451,-0.1794788 0.030482,-0.2660078 0.00616,-0.048356 0.051085,-0.087517 0.099841,-0.087517 h 1.3182792 c 0.045863,0 0.087681,0.034833 0.097466,0.079191 l 0.060116,0.2754392 c 0.00927,0.047863 -0.023355,0.086764 -0.072111,0.086764 H 2.6585412 c -0.048756,0 -0.084577,-0.039348 -0.079638,-0.087869 z M 4.3342728,2.3672583 c 0.1331451,0.062586 0.2624564,0.1343916 0.3841238,0.2192506 0.079991,0.055789 0.1674602,0.1793613 0.1947666,0.2729462 0.049627,0.1698122 0.092597,0.3483973 0.1285117,0.5341559 0.00922,0.047863 -0.023355,0.086764 -0.072111,0.086764 H 4.6957236 c -0.048756,0 -0.095702,-0.038807 -0.1056035,-0.086552 C 4.5196316,3.0543158 4.4247061,2.7436441 4.308166,2.4799177 4.296618,2.4537397 4.284717,2.4272337 4.271852,2.4007267 4.252848,2.3614017 4.29389,2.3482777 4.3342728,2.3672583 Z m 0.8405941,2.3406805 c 6.821e-4,0.044029 0.00108,0.088175 0.00108,0.132463 0,0.3179158 -0.017875,0.6290344 -0.052425,0.9275934 -0.00555,0.048427 -0.050167,0.087634 -0.098924,0.087634 H 4.7547816 c -0.048756,0 -0.08286,-0.039137 -0.076862,-0.087517 0.037114,-0.2989589 0.056635,-0.6114181 0.056635,-0.927711 0,-0.044217 -3.763e-4,-0.088364 -0.00122,-0.1324159 -8.467e-4,-0.048733 0.037514,-0.088269 0.08627,-0.088269 h 0.2650906 c 0.048756,0 0.089351,0.03949 0.090174,0.088222 z M 3.0492035,4.2748706 c -0.048756,0 -0.086858,-0.03949 -0.084765,-0.088199 0.0039,-0.089633 0.00854,-0.1780206 0.013924,-0.2650905 0.00306,-0.048639 0.045323,-0.088105 0.094055,-0.088105 H 4.577302 c 0.048756,0 0.093726,0.03916 0.0997,0.087564 0.010913,0.087517 0.020274,0.1762332 0.028106,0.2658432 0.00423,0.048545 -0.03241,0.087987 -0.081166,0.087987 z m 1.1703873,2.0217323 c 0.00477,-0.048528 0.047886,-0.087851 0.096642,-0.087851 H 6.0485297 C 6.2452955,5.7953722 6.3555559,5.3328573 6.3555559,4.8445648 c 0,-0.1945079 -0.017546,-0.3848529 -0.050991,-0.5696942 H 5.2435444 c -0.048756,0 -0.090951,-0.039419 -0.094878,-0.088011 -0.00724,-0.089563 -0.015899,-0.1782088 -0.026036,-0.2657491 -0.00562,-0.048427 0.028882,-0.087634 0.077638,-0.087634 h 0.990979 C 5.7688569,2.57402 4.579207,1.6665124 3.1775269,1.6665124 c -0.062939,0 -0.12536,0.00202 -0.1873344,0.00564 -0.083683,0.1410241 -0.1788438,0.3801489 -0.2641027,0.7661307 -0.00997,0.045111 -0.019615,0.091421 -0.028929,0.1387662 -0.00941,0.047839 -0.056,0.086741 -0.1047567,0.086741 h -0.271801 c -0.048768,0 -0.081611,-0.038949 -0.072784,-0.086905 C 2.26274,2.4962168 2.2784794,2.4181785 2.2950702,2.34308 2.3459409,2.1127516 2.4036583,1.9139631 2.4684786,1.7460089 1.6820527,1.9252291 1.0067527,2.3961875 0.56214572,3.0389809 H 2.0874829 c 0.048747,0 0.083144,0.039207 0.077192,0.087587 -0.010549,0.086764 -0.020342,0.1754805 -0.029263,0.2659372 -0.00479,0.048521 -0.047846,0.08787 -0.096605,0.08787 H 0.30651715 C 0.10973229,3.8937574 -5.2547341e-4,4.3562723 -5.2547341e-4,4.8445648 c 0,0.1944844 0.0175387134,0.3848293 0.0510175234,0.5696706 H 1.1114789 c 0.048747,0 0.090974,0.039419 0.094878,0.088011 0.00723,0.089587 0.015902,0.1782087 0.026027,0.265749 0.0056,0.048427 -0.028875,0.087634 -0.077634,0.087634 H 0.16379091 c 0.42235431,1.2594588 1.61199019,2.1669617 3.01373599,2.1669617 0.062868,0 0.1252895,-0.00202 0.1872874,-0.00564 0.08366,-0.1410453 0.1788438,-0.3801466 0.2641263,-0.766126 0.00997,-0.04512 0.019568,-0.091423 0.028882,-0.1387663 0.00941,-0.047848 0.056,-0.08672 0.1047568,-0.08672 h 0.2718172 c 0.048756,0 0.08159,0.038927 0.072746,0.086875 -0.014841,0.080675 -0.030576,0.1587132 -0.04718,0.2338375 C 4.0090659,7.5763779 3.9513251,7.7751476 3.8865518,7.9431206 4.6729565,7.7638746 5.3482777,7.2929185 5.7928706,6.650151 H 4.2675239 c -0.048756,0 -0.083119,-0.039212 -0.077215,-0.087611 0.010607,-0.086764 0.020344,-0.1754593 0.029282,-0.2659372"
       style="fill:#0c1c2c;fill-opacity:1;fill-rule:nonzero;stroke:none;stroke-width:0.00235197" />
  </g>
</svg>
