<?xml version="1.0" encoding="UTF-8"?>
<!-- Created with Inkscape (http://www.inkscape.org/) -->
<svg width="155.23" height="37.795" version="1.1" viewBox="0 0 155.23 37.795" xmlns="http://www.w3.org/2000/svg" xmlns:xlink="http://www.w3.org/1999/xlink"><defs><clipPath id="clipPath2"><path transform="translate(-353.25 -72.8)" d="M 0,104.428 H 428.888 V 0 H 0 Z"/></clipPath><clipPath id="clipPath4"><path transform="translate(-361.25 -65.937)" d="M 0,104.428 H 428.888 V 0 H 0 Z"/></clipPath><clipPath id="clipPath6"><path transform="translate(-407.32 -86.643)" d="M 0,104.428 H 428.888 V 0 H 0 Z"/></clipPath><clipPath id="clipPath8"><path transform="translate(-301.18 -82.979)" d="M 0,104.428 H 428.888 V 0 H 0 Z"/></clipPath><clipPath id="clipPath10"><path transform="translate(-403.34 -70.163)" d="M 0,104.428 H 428.888 V 0 H 0 Z"/></clipPath><clipPath id="clipPath12"><path transform="translate(-362.57 -96.286)" d="M 0,104.428 H 428.888 V 0 H 0 Z"/></clipPath><clipPath id="clipPath14"><path transform="translate(-322.94 -70.129)" d="M 0,104.428 H 428.888 V 0 H 0 Z"/></clipPath><clipPath id="clipPath16"><path transform="translate(-373.27 -79.262)" d="M 0,104.428 H 428.888 V 0 H 0 Z"/></clipPath><clipPath id="clipPath18"><path transform="translate(-136.19 -69.486)" d="M 0,104.428 H 428.888 V 0 H 0 Z"/></clipPath><clipPath id="clipPath20"><path transform="translate(-154.71 -76.65)" d="M 0,104.428 H 428.888 V 0 H 0 Z"/></clipPath><clipPath id="clipPath22"><path transform="translate(-173.98 -70.171)" d="M 0,104.428 H 428.888 V 0 H 0 Z"/></clipPath><clipPath id="clipPath24"><path transform="translate(-212.53 -87.808)" d="M 0,104.428 H 428.888 V 0 H 0 Z"/></clipPath><clipPath id="clipPath26"><path transform="translate(-226.46 -83.198)" d="M 0,104.428 H 428.888 V 0 H 0 Z"/></clipPath><clipPath id="clipPath28"><path transform="translate(-273.85 -70.171)" d="M 0,104.428 H 428.888 V 0 H 0 Z"/></clipPath><clipPath id="clipPath30"><path transform="translate(-182.01 -79.261)" d="M 0,104.428 H 428.888 V 0 H 0 Z"/></clipPath><clipPath id="clipPath32"><path transform="translate(-243.77 -79.261)" d="M 0,104.428 H 428.888 V 0 H 0 Z"/></clipPath><clipPath id="clipPath34"><path transform="translate(-280.3 -19.13)" d="M 0,104.428 H 428.888 V 0 H 0 Z"/></clipPath><clipPath id="clipPath36"><path transform="translate(-142.38 -36.341)" d="M 0,104.428 H 428.888 V 0 H 0 Z"/></clipPath><clipPath id="clipPath38"><path transform="translate(-162.16 -12.781)" d="M 0,104.428 H 428.888 V 0 H 0 Z"/></clipPath><clipPath id="clipPath40"><path transform="translate(-376.5 -12.781)" d="M 0,104.428 H 428.888 V 0 H 0 Z"/></clipPath><clipPath id="clipPath42"><path transform="translate(-252.67 -13.397)" d="M 0,104.428 H 428.888 V 0 H 0 Z"/></clipPath><clipPath id="clipPath44"><path transform="translate(-352.12 -45.156)" d="M 0,104.428 H 428.888 V 0 H 0 Z"/></clipPath><clipPath id="clipPath46"><path transform="translate(-359.68 -13.397)" d="M 0,104.428 H 428.888 V 0 H 0 Z"/></clipPath><clipPath id="clipPath48"><path transform="translate(-213.91 -13.397)" d="M 0,104.428 H 428.888 V 0 H 0 Z"/></clipPath><clipPath id="clipPath50"><path transform="translate(-315.61 -19.13)" d="M 0,104.428 H 428.888 V 0 H 0 Z"/></clipPath><clipPath id="clipPath52"><path transform="translate(-341.55 -13.403)" d="M 0,104.428 H 428.888 V 0 H 0 Z"/></clipPath><clipPath id="clipPath54"><path transform="translate(-428.02 -13.397)" d="M 0,104.428 H 428.888 V 0 H 0 Z"/></clipPath><clipPath id="clipPath55"><path transform="translate(-46.842 -98.946)" d="M 0,104.428 H 104.82 V 0 H 0 Z"/></clipPath><clipPath id="clipPath57"><path transform="matrix(1.3333 0 0 -1.3333 0 139.24)" d="M 0,104.428 H 428.888 V 0 H 0 Z"/></clipPath><clipPath id="clipPath58"><path transform="translate(-46.871 -83.878)" d="m14.876 89.362h75.078v-75.078h-75.078z"/></clipPath><clipPath id="clipPath60"><path transform="matrix(1.3333 0 0 -1.3333 0 139.24)" d="M 0,104.428 H 428.888 V 0 H 0 Z"/></clipPath><clipPath id="clipPath61"><path transform="translate(-46.907 -68.812)" d="m32.202 74.294h40.417v-44.941h-40.417z"/></clipPath><clipPath id="clipPath63"><path transform="matrix(1.3333 0 0 -1.3333 0 139.24)" d="M 0,104.428 H 428.888 V 0 H 0 Z"/></clipPath><clipPath id="clipPath65"><path transform="translate(-46.936 -51.845)" d="M 0,104.428 H 428.888 V 0 H 0 Z"/></clipPath></defs><g transform="translate(-2.2808e-7 -.00080018)"><g fill="#100b32"><g fill-rule="evenodd"><path transform="matrix(.36193 0 0 -.36193 127.85 11.448)" d="m0 0c-1.523-1.8-3.33-2.679-5.336-2.679-3.816 0-6.497 2.701-6.497 6.542 0 3.721 2.681 6.532 6.245 6.532 2.38 0 4.072-1.35 5.094-2.595 0.31-0.372 0.827-0.449 1.181-0.137l2.243 1.912c0.371 0.32 0.447 0.888 0.141 1.263-2.178 2.699-5.365 4.189-8.659 4.189-6.302 0-11.04-4.786-11.04-11.164 0-6.371 4.854-11.162 11.292-11.162 3.556 0 7.152 1.741 9.111 4.543 0.285 0.397 0.147 0.964-0.234 1.246l-2.304 1.679c-0.383 0.279-0.904 0.196-1.237-0.169" clip-path="url(#clipPath2)"/><path transform="matrix(.36193 0 0 -.36193 130.75 13.932)" d="m0 0h3.063c0.475 0 0.864 0.386 0.864 0.873v19.711c0 0.479-0.389 0.863-0.864 0.863h-3.063c-0.494 0-0.886-0.384-0.886-0.863v-19.711c0-0.487 0.392-0.873 0.886-0.873" clip-path="url(#clipPath4)"/><path transform="matrix(.36193 0 0 -.36193 147.42 6.4376)" d="m0 0 8.604-18.22-5.328-12.316c-0.203-0.44 0.037-0.801 0.514-0.801h3.389c0.479 0 1.027 0.361 1.225 0.801l13.085 30.487c0.205 0.438-0.029 0.79-0.516 0.79h-3.34c-0.491 0-1.023-0.352-1.215-0.79l-5.344-12.451-5.858 12.465c-0.196 0.424-0.761 0.776-1.237 0.776l-3.52-5e-3c-0.444 0-0.647-0.334-0.459-0.736" clip-path="url(#clipPath6)"/><path transform="matrix(.36193 0 0 -.36193 109.01 7.7637)" d="m0 0c-2.778 1.19-5.233 2.161-5.233 4.393 0 2.322 2.064 3.578 4.245 3.578 1.511 0 3.02-0.521 4.472-1.461 0.372-0.24 0.834-0.24 1.125 0.114l1.748 2.196c0.28 0.349 0.231 0.87-0.122 1.143-2.294 1.783-4.758 2.6-7.391 2.6-4.967 0-8.865-3.461-8.865-7.901 0-2.699 1.25-4.892 3.727-6.554 1.218-0.806 2.636-1.406 4.013-1.968 2.878-1.203 5.391-2.35 5.391-5.14 0-2.288-1.785-3.795-4.43-3.795-2.795 0-4.823 1.467-6.364 3.012-0.32 0.307-0.767 0.362-1.097 0.044l-2.064-2.071c-0.325-0.313-0.352-0.854-0.053-1.193 2.63-2.971 6.076-4.475 9.791-4.475 5.245 0 9.056 3.603 9.056 8.593 0 2.824-1.138 5.102-3.673 6.798-1.219 0.835-2.839 1.47-4.276 2.087" clip-path="url(#clipPath8)"/><path transform="matrix(.36193 0 0 -.36193 145.98 12.402)" d="m0 0c-0.311-0.024-0.623-0.046-0.875-0.046-1.068 0-2.105 0.403-2.587 0.989-0.452 0.523-0.528 1.36-0.528 2.437v9.424l4.809 0.012c0.446 0 0.964 0.183 0.803 0.814l-0.907 2.776c-0.088 0.327-0.367 0.815-0.959 0.815h-3.746v4.88c0 0.482-0.397 0.874-0.873 0.874h-3.074c-0.482 0-0.871-0.392-0.871-0.874v-4.88h-3.472c-0.745 0-0.988-0.359-0.866-0.875 0.121-0.514 0.456-2.676 0.456-2.676 0.094-0.383 0.385-0.866 0.865-0.866h3.017v-9.191c0-2.563 0.58-4.439 1.746-5.761 1.456-1.658 3.541-2.546 6.062-2.546 0.299 0 0.631 7e-3 0.949 0.043 0.48 0.023 0.868 0.476 0.873 0.955l0.034 2.931c7e-3 0.473-0.374 0.802-0.856 0.765" clip-path="url(#clipPath10)"/><path transform="matrix(.36193 0 0 -.36193 131.22 2.9473)" d="m0 0c-1.673 0-2.982-1.348-2.982-3.067 0-1.703 1.309-3.044 2.982-3.044 1.712 0 3.041 1.341 3.041 3.044 0 1.683-1.367 3.067-3.041 3.067" clip-path="url(#clipPath12)"/><path transform="matrix(.36193 0 0 -.36193 116.88 12.415)" d="m0 0c-3.492 0-6.134 2.808-6.134 6.534 0 3.721 2.642 6.536 6.134 6.536 3.525 0 6.154-2.815 6.154-6.536 0-3.726-2.629-6.534-6.154-6.534m0 17.698c-6.236 0-10.943-4.786-10.943-11.164 0-6.371 4.707-11.162 10.943-11.162 6.247 0 10.962 4.791 10.962 11.162 0 6.378-4.715 11.164-10.962 11.164" clip-path="url(#clipPath14)"/><path transform="matrix(.36193 0 0 -.36193 135.1 9.1087)" d="m0 0c0.855 2.525 3.22 4.239 5.886 4.239 2.435 0 4.728-1.781 5.489-4.239zm5.683 8.564c-5.982 0-10.332-4.687-10.332-11.164 0-6.371 4.708-11.173 10.953-11.173 4.526 0 7.17 2.091 8.536 3.592 0.32 0.346 0.284 0.933-0.073 1.267l-1.905 1.846c-0.347 0.331-0.878 0.306-1.216-0.05-1.284-1.316-2.836-2.318-5.293-2.318-3.218 0-5.916 2.434-6.294 5.625h14.898c0.484 0 0.907 0.273 0.923 0.602 0.015 0.277 0.015 0.506 0.015 0.609 0 6.378-4.38 11.164-10.212 11.164" clip-path="url(#clipPath16)"/><path transform="matrix(.36193 0 0 -.36193 49.292 12.647)" d="m0 0v-2.684c0-0.493-0.386-0.881-0.873-0.881h-12.248c-0.477 0-0.868 0.388-0.868 0.881v2.684c0 0.488 0.391 0.887 0.868 0.887h3.741v20.57h-3.578c-0.488 0-0.885 0.394-0.885 0.882v2.688c0 0.491 0.397 0.877 0.885 0.877h11.875c0.472 0 0.856-0.386 0.856-0.877v-2.688c0-0.488-0.384-0.882-0.856-0.882h-3.509v-20.57h3.719c0.487 0 0.873-0.399 0.873-0.887" clip-path="url(#clipPath18)"/><path transform="matrix(.36193 0 0 -.36193 55.994 10.054)" d="m0 0v-9.847c0-0.493 0.395-0.882 0.868-0.882h3.067c0.479 0 0.873 0.389 0.873 0.882v9.629c0 3.464-0.638 5.736-2.088 7.598-1.862 2.412-4.241 3.801-7.282 3.801-2.808 0-4.299-1.199-5.39-2.037v0.8c0 0.44-0.396 0.794-0.866 0.794h-2.934c-0.487 0-0.871-0.384-0.871-0.869v-19.716c0-0.493 0.384-0.882 0.871-0.882h3.059c0.482 0 0.866 0.389 0.866 0.882v13.622c1.066 1.29 2.45 2.774 5.142 2.774 1.57 0 2.649-0.681 3.527-1.926 0.667-0.922 1.158-1.821 1.158-4.623" clip-path="url(#clipPath20)"/><path transform="matrix(.36193 0 0 -.36193 62.967 12.399)" d="m0 0c-0.315-0.025-0.626-0.046-0.878-0.046-1.068 0-2.104 0.401-2.587 0.991-0.45 0.523-0.528 1.36-0.528 2.437v9.42h4.142c0.482 0 0.869 0.386 0.869 0.867l0.606 2.679c0 0.485-0.389 0.869-0.868 0.869h-4.749v4.883c0 0.485-0.396 0.876-0.875 0.876h-3.071c-0.482 0-0.872-0.391-0.872-0.876v-4.883h-3.471c-0.743 0-0.989-0.357-0.866-0.869 0.123-0.515 0.455-2.679 0.455-2.679 0.095-0.382 0.388-0.867 0.868-0.867h3.014v-9.191c0-2.559 0.582-4.436 1.751-5.758 1.454-1.659 3.537-2.548 6.06-2.548 0.301 0 0.626 9e-3 0.944 0.045 0.482 0.024 0.87 0.477 0.875 0.953l0.033 2.931c9e-3 0.476-0.37 0.802-0.852 0.766" clip-path="url(#clipPath22)"/><path transform="matrix(.36193 0 0 -.36193 76.921 6.0157)" d="m0 0c-0.26 7e-3 -0.514 0.022-0.717 0.022-2.65 0-4.658-1.074-5.832-2.277v0.965c0 0.486-0.393 0.87-0.868 0.87h-2.934c-0.487 0-0.873-0.384-0.873-0.87v-19.716c0-0.493 0.386-0.882 0.873-0.882h3.059c0.481 0 0.868 0.389 0.868 0.882v13.143c1.14 1.914 3.275 3.253 5.236 3.253 0.349 0 0.709-0.027 1.058-0.075 0.465-0.064 0.837 0.189 0.837 0.681v3.053c0 0.489-0.309 0.924-0.707 0.951" clip-path="url(#clipPath24)"/><path transform="matrix(.36193 0 0 -.36193 81.964 7.6842)" d="m0 0c1.555 0 2.616-0.711 3.538-1.926 0.611-0.791 1.151-1.821 1.151-4.623v-9.847c0-0.493 0.387-0.882 0.864-0.882h3.079c0.489 0 0.86 0.389 0.86 0.882v9.629c0 3.464-0.457 5.895-1.904 7.769-1.868 2.417-4.373 3.595-7.427 3.595-2.8 0-4.37-1.163-5.426-2.002v0.8c0 0.44-0.384 0.794-0.876 0.794h-2.926c-0.49 0-0.873-0.383-0.873-0.869v-19.716c0-0.493 0.383-0.882 0.873-0.882h3.066c0.484 0 0.865 0.389 0.865 0.882v13.622c1.076 1.29 2.446 2.774 5.136 2.774" clip-path="url(#clipPath26)"/><path transform="matrix(.36193 0 0 -.36193 99.115 12.399)" d="m0 0c-0.313-0.025-0.624-0.046-0.878-0.046-1.069 0-2.105 0.401-2.588 0.991-0.452 0.523-0.525 1.36-0.525 2.437v9.42h4.003c0.489 0 0.863 0.386 0.863 0.867v2.679c0 0.485-0.374 0.869-0.863 0.869h-4.003v4.883c0 0.485-0.399 0.876-0.88 0.876h-3.071c-0.48 0-0.867-0.391-0.867-0.876v-4.883h-3.472c-0.745 0-0.99-0.357-0.87-0.869 0.125-0.515 0.455-2.679 0.455-2.679 0.097-0.382 0.388-0.867 0.868-0.867h3.019v-9.191c0-2.559 0.578-4.436 1.747-5.758 1.455-1.659 3.538-2.548 6.059-2.548 0.301 0 0.633 9e-3 0.948 0.045 0.48 0.024 0.868 0.477 0.876 0.953l0.03 2.931c9e-3 0.476-0.372 0.802-0.851 0.766" clip-path="url(#clipPath28)"/><path transform="matrix(.36193 0 0 -.36193 65.875 9.1091)" d="m0 0c0.863 2.516 3.203 4.242 5.873 4.242 2.445 0 4.722-1.793 5.495-4.242zm5.683 8.569c-5.987 0-10.341-4.707-10.341-11.181 0-6.372 4.719-11.174 10.957-11.174 4.528 0 7.172 2.095 8.519 3.593 0.33 0.356 0.288 0.933-0.056 1.275l-1.909 1.84c-0.343 0.346-0.888 0.308-1.213-0.042-1.28-1.328-2.832-2.328-5.295-2.328-3.215 0-5.925 2.446-6.291 5.631h14.894c0.477 0 0.895 0.264 0.927 0.596 0 0.268 0.01 0.514 0.01 0.609 0 6.379-4.388 11.181-10.202 11.181" clip-path="url(#clipPath30)"/><path transform="matrix(.36193 0 0 -.36193 88.226 9.1091)" d="m0 0c0.868 2.516 3.218 4.242 5.879 4.242 2.445 0 4.728-1.793 5.499-4.242zm5.686 8.569c-5.982 0-10.332-4.707-10.332-11.181 0-6.372 4.705-11.174 10.938-11.174 4.526 0 7.174 2.095 8.546 3.593 0.304 0.356 0.274 0.933-0.083 1.275l-1.898 1.84c-0.354 0.346-0.884 0.308-1.22-0.042-1.283-1.328-2.836-2.328-5.301-2.328-3.206 0-5.913 2.446-6.277 5.631h14.894c0.486 0 0.895 0.264 0.917 0.596 0.015 0.268 0.029 0.514 0.029 0.609 0 6.379-4.394 11.181-10.213 11.181" clip-path="url(#clipPath32)"/></g><g><path transform="matrix(.36193 0 0 -.36193 101.45 30.873)" d="m0 0c0-0.164-0.044-0.326-0.13-0.465-2.233-3.608-5.86-5.762-9.714-5.762-2.158 0-4.261 0.697-6.25 2.068-2.728 1.923-4.357 5.33-4.357 9.114 0 3.572 1.413 6.786 3.877 8.818 1.848 1.502 4.279 2.364 6.668 2.364 5.003 0 8.597-3.468 9.8-5.302 0.07-0.107 0.106-0.235 0.106-0.371zm8-5.732h-3.28v40.074c0 0.478-0.388 0.866-0.866 0.866h-6.987c-0.478 0-0.866-0.388-0.866-0.866v-2.654c0-0.478 0.388-0.866 0.866-0.866h3.133v-13.932c-2.713 2.435-6.25 3.775-9.971 3.775-3.462 0-6.958-1.231-9.591-3.379-3.564-3.015-5.608-7.511-5.608-12.331 0-5.326 2.336-10.017 6.409-12.869 2.652-1.885 5.673-2.841 8.981-2.841 3.863 0 7.467 1.446 9.909 3.971l-1e-3 -2.467c0-0.478 0.388-0.866 0.866-0.866h7.006c0.478 0 0.865 0.388 0.865 0.866v2.652c0 0.479-0.387 0.867-0.865 0.867" clip-path="url(#clipPath34)"/><path transform="matrix(.36193 0 0 -.36193 51.531 24.643)" d="m0 0h-11.462v13.611l19.527 1e-3c0.478 0 0.866 0.388 0.866 0.867v2.652c0 0.478-0.389 0.866-0.866 0.866h-27.158c-0.478 0-0.866-0.388-0.866-0.866v-2.653c0-0.479 0.388-0.867 0.866-0.867h2.925v-36.554h-2.925c-0.478 0-0.866-0.388-0.866-0.867v-2.652c0-0.478 0.388-0.866 0.866-0.866h10.599c0.478 0 0.866 0.388 0.866 0.866v2.652c0 0.479-0.388 0.867-0.866 0.867h-2.968v18.556h11.462c0.479 0 0.866 0.388 0.866 0.866v2.655c0 0.478-0.387 0.866-0.866 0.866" clip-path="url(#clipPath36)"/><path transform="matrix(.36193 0 0 -.36193 58.689 33.17)" d="m0 0c-6.043 0-10.6 4.87-10.6 11.328 0 6.46 4.557 11.332 10.6 11.332 6.065 0 10.639-4.872 10.639-11.332 0-6.458-4.574-11.328-10.639-11.328m6e-3 27.014c-8.77 0-15.383-6.743-15.383-15.685 0-8.94 6.613-15.683 15.383-15.683 8.786 0 15.412 6.743 15.412 15.683 0 8.942-6.626 15.685-15.412 15.685" clip-path="url(#clipPath38)"/><path transform="matrix(.36193 0 0 -.36193 136.27 33.17)" d="m0 0c-6.043 0-10.601 4.87-10.601 11.328 0 6.46 4.558 11.332 10.601 11.332 6.065 0 10.639-4.872 10.639-11.332 0-6.458-4.574-11.328-10.639-11.328m7e-3 27.014c-8.772 0-15.386-6.743-15.386-15.685 0-8.94 6.614-15.683 15.386-15.683 8.785 0 15.411 6.743 15.411 15.683 0 8.942-6.626 15.685-15.411 15.685" clip-path="url(#clipPath40)"/><path transform="matrix(.36193 0 0 -.36193 91.447 32.947)" d="m0 0h-2.961v11.644c0 5.151-1.036 7.574-2.592 9.627-2.41 3.257-6.332 5.126-10.759 5.126-3.799 0-7.334-1.383-9.716-3.8v2.298c0 0.478-0.388 0.866-0.867 0.866h-6.675c-0.479 0-0.867-0.388-0.867-0.866v-2.653c0-0.478 0.388-0.866 0.867-0.866h2.95v-21.376h-2.95c-0.479 0-0.867-0.388-0.867-0.866v-2.653c0-0.478 0.388-0.866 0.867-0.866h10.802c0.478 0 0.867 0.388 0.867 0.866v2.653c0 0.478-0.389 0.866-0.867 0.866h-3.133v15.96c0 0.164 0.045 0.327 0.131 0.466 2.156 3.46 5.579 5.443 9.394 5.443 2.946 0 5.549-1.331 7.137-3.653 0.81-1.166 1.56-2.8 1.56-6.827v-11.389h-3.124c-0.478 0-0.866-0.388-0.866-0.866v-2.653c0-0.478 0.388-0.866 0.866-0.866h10.803c0.479 0 0.866 0.388 0.866 0.866v2.653c0 0.478-0.387 0.866-0.866 0.866" clip-path="url(#clipPath42)"/><path transform="matrix(.36193 0 0 -.36193 127.44 21.453)" d="m0 0c1.98 0 3.591 1.582 3.591 3.526 0 1.98-1.611 3.591-3.591 3.591-1.944 0-3.526-1.611-3.526-3.591 0-1.977 1.548-3.526 3.526-3.526" clip-path="url(#clipPath44)"/><path transform="matrix(.36193 0 0 -.36193 130.18 32.947)" d="m0 0h-4.297v24.895c0 0.478-0.388 0.866-0.866 0.866h-6.986c-0.479 0-0.867-0.388-0.867-0.866v-2.653c0-0.478 0.388-0.866 0.867-0.866h3.132v-21.376h-3.273c-0.479 0-0.866-0.388-0.866-0.866v-2.653c0-0.478 0.387-0.866 0.866-0.866h12.29c0.478 0 0.866 0.388 0.866 0.866v2.653c0 0.478-0.388 0.866-0.866 0.866" clip-path="url(#clipPath46)"/><path transform="matrix(.36193 0 0 -.36193 77.421 32.947)" d="m0 0h-3.268v24.895c0 0.478-0.387 0.866-0.866 0.866h-2.057c-0.026 0-0.05-2e-3 -0.087-5e-3l-0.065-6e-3c-0.037 6e-3 -0.078 0.011-0.12 0.011h-5.681c-0.478 0-0.866-0.388-0.866-0.866v-2.653c0-0.478 0.388-0.866 0.866-0.866h4.159v-16.002c0-0.148-0.037-0.292-0.108-0.415-1.883-3.313-5.43-5.453-9.036-5.453-2.852 0-5.359 1.306-6.877 3.581-0.939 1.413-1.565 3.181-1.565 7.219v14.589c0 0.478-0.388 0.866-0.866 0.866h-7.751c-0.478 0-0.867-0.388-0.867-0.866v-2.653c0-0.478 0.389-0.866 0.867-0.866h3.899v-11.645c0-3.663 0.535-6.202 1.791-8.489 2.232-3.923 6.482-6.264 11.369-6.264 3.465 0 6.921 1.38 9.27 3.697v-2.194c0-0.478 0.387-0.866 0.866-0.866h6.993c0.479 0 0.866 0.388 0.866 0.866v2.653c0 0.478-0.387 0.866-0.866 0.866" clip-path="url(#clipPath48)"/><path transform="matrix(.36193 0 0 -.36193 114.23 30.873)" d="m0 0c0-0.163-0.045-0.325-0.131-0.465-2.232-3.608-5.862-5.762-9.713-5.762-2.158 0-4.261 0.697-6.25 2.069-2.728 1.921-4.357 5.328-4.357 9.113 0 3.571 1.413 6.786 3.877 8.818 1.849 1.502 4.28 2.364 6.667 2.364 4.317 0 8.095-2.731 9.777-5.268 0.085-0.128 0.13-0.283 0.13-0.447zm7.982-5.732h-3.263v24.894c0 0.479-0.388 0.866-0.866 0.866h-2.858c-0.478 0-0.866-0.387-0.866-0.866v-2.366c-2.67 2.46-6.345 3.869-10.1 3.869-3.463 0-6.959-1.231-9.592-3.379-3.564-3.017-5.608-7.512-5.608-12.331 0-5.327 2.336-10.017 6.41-12.869 2.652-1.885 5.673-2.841 8.981-2.841 3.864 0 7.467 1.446 9.909 3.972v-2.468c0-0.478 0.388-0.866 0.866-0.866h6.987c0.479 0 0.867 0.388 0.867 0.866v2.652c0 0.479-0.388 0.867-0.867 0.867" clip-path="url(#clipPath50)"/><path transform="matrix(.36193 0 0 -.36193 123.62 32.945)" d="m0 0-0.819 1e-3c-1.829 0.059-3.603 0.815-4.519 1.929-0.965 1.115-1.046 2.761-1.046 4.351v15.089h5.519c0.478 0 0.866 0.388 0.866 0.866v2.653c0 0.478-0.388 0.866-0.866 0.866h-5.519v6.753c0 0.478-0.387 0.866-0.866 0.866h-2.956c-0.479 0-0.866-0.388-0.866-0.866v-6.753h-4.411c-0.479 0-0.867-0.388-0.867-0.866v-2.653c0-0.478 0.388-0.866 0.867-0.866h4.411v-14.745c0-3.445 0.743-5.964 2.271-7.7 1.741-1.981 4.228-3.124 7.19-3.308 0.022 0 0.045-1e-3 0.067-2e-3l1.494-6e-3h4e-3c0.242 0 0.47 0.095 0.643 0.266 0.172 0.172 0.267 0.401 0.267 0.645v2.614c0 0.477-0.386 0.865-0.864 0.866" clip-path="url(#clipPath52)"/><path transform="matrix(.36193 0 0 -.36193 154.91 32.947)" d="m0 0h-2.96v11.644c0 5.153-1.036 7.575-2.592 9.627-2.41 3.257-6.332 5.126-10.76 5.126-3.798 0-7.333-1.383-9.716-3.8v2.298c0 0.478-0.388 0.866-0.866 0.866h-6.675c-0.479 0-0.867-0.388-0.867-0.866v-2.653c0-0.478 0.388-0.866 0.867-0.866h2.95v-21.376h-2.95c-0.479 0-0.867-0.388-0.867-0.866v-2.653c0-0.478 0.388-0.866 0.867-0.866h10.801c0.479 0 0.867 0.388 0.867 0.866v2.653c0 0.478-0.388 0.866-0.867 0.866h-3.132v15.961c0 0.164 0.045 0.327 0.131 0.467 2.157 3.458 5.58 5.441 9.394 5.441 2.946 0 5.548-1.331 7.137-3.653 0.81-1.165 1.56-2.798 1.56-6.827v-11.389h-3.123c-0.478 0-0.866-0.388-0.866-0.866v-2.653c0-0.478 0.388-0.866 0.866-0.866h10.801c0.479 0 0.866 0.388 0.866 0.866v2.653c0 0.478-0.387 0.866-0.866 0.866" clip-path="url(#clipPath54)"/></g></g><g transform="matrix(.27145 0 0 .27145 1.6617e-7 .00058298)" clip-path="url(#clipPath57)" opacity=".5"><path transform="matrix(1.3333 0 0 -1.3333 62.456 7.3088)" d="m0 0c-6e-3 3.021 2.438 5.476 5.461 5.481h0.111c3.022 0 5.472-2.447 5.472-5.471 0-3.021-2.45-5.471-5.472-5.471-0.016 0-0.032 0-0.048 2e-3 -0.014-2e-3 -0.026-2e-3 -0.041-2e-3h-0.012c-3.015 0-5.463 2.442-5.471 5.461m20.625-8.26v-2e-3c-2.819 1.093-4.217 4.262-3.125 7.081 1.092 2.816 4.261 4.217 7.078 3.124v-2e-3c2.817-1.09 4.217-4.259 3.125-7.076-0.841-2.168-2.91-3.497-5.103-3.497-0.658 0-1.327 0.119-1.975 0.372m-37.268 3.078c-1.098 2.815 0.294 5.989 3.109 7.085 2.816 1.098 5.988-0.294 7.086-3.109 1.098-2.816-0.294-5.988-3.111-7.086-0.652-0.253-1.325-0.375-1.985-0.375-2.189 0-4.256 1.323-5.099 3.485m50.279-11.147c-2.233 2.037-2.393 5.498-0.357 7.731 2.035 2.233 5.496 2.391 7.729 0.357 2.233-2.037 2.393-5.498 0.357-7.731-1.08-1.183-2.56-1.785-4.045-1.785-1.315 0-2.636 0.472-3.684 1.428m-63.916 0.286c-2.041 2.229-1.889 5.69 0.34 7.731 2.229 2.038 5.69 1.886 7.731-0.343 2.04-2.227 1.886-5.69-0.341-7.73-1.052-0.961-2.375-1.435-3.694-1.435-1.481 0-2.958 0.598-4.036 1.777m73.154-12.499c-1.349 2.706-0.253 5.99 2.452 7.34 2.703 1.349 5.988 0.251 7.338-2.452 1.349-2.703 0.253-5.988-2.45-7.338-0.786-0.392-1.619-0.577-2.44-0.577-2.008 0-3.941 1.109-4.9 3.027m-81.973-2.541c-2.708 1.343-3.812 4.628-2.466 7.333h-2e-3c1.345 2.706 4.628 3.813 7.335 2.467 2.706-1.343 3.81-4.629 2.466-7.334-0.956-1.925-2.891-3.04-4.903-3.04-0.819 0-1.65 0.185-2.43 0.574m86.158-12.17c-0.276 3.009 1.939 5.673 4.948 5.949 3.01 0.276 5.672-1.939 5.948-4.948 0.277-3.007-1.937-5.672-4.947-5.95-0.17-0.014-0.338-0.022-0.507-0.022-2.796 0-5.181 2.132-5.442 4.971m-88.918-5.048c-3.012 0.271-5.232 2.93-4.961 5.939 0.27 3.01 2.928 5.231 5.94 4.961 3.009-0.271 5.23-2.931 4.958-5.939-0.255-2.843-2.642-4.984-5.443-4.984-0.164 0-0.328 9e-3 -0.494 0.023m91.295-16.961c-2.906 0.825-4.596 3.848-3.773 6.756 0.824 2.908 3.848 4.596 6.755 3.773 2.909-0.824 4.599-3.848 3.774-6.756-0.683-2.409-2.876-3.981-5.261-3.981-0.494 0-0.997 0.068-1.495 0.208m-94.452 3.666c-0.829 2.906 0.853 5.933 3.759 6.763 2.905 0.832 5.933-0.852 6.764-3.758 0.828-2.906-0.853-5.933-3.759-6.762-0.503-0.144-1.007-0.213-1.506-0.213-2.381 0-4.572 1.566-5.258 3.97m84.93-18.272c-2.412 1.822-2.892 5.252-1.07 7.663 1.822 2.413 5.252 2.89 7.664 1.069 2.411-1.82 2.889-5.253 1.068-7.664-1.075-1.423-2.712-2.174-4.369-2.172-1.149 0-2.307 0.358-3.293 1.104m-76.278 0.981c-1.827 2.407-1.355 5.84 1.052 7.666 2.407 1.825 5.84 1.355 7.666-1.054 1.826-2.407 1.355-5.838-1.054-7.664-0.988-0.75-2.15-1.112-3.301-1.112-1.653 0-3.287 0.745-4.363 2.164m62.139-11.184c-1.594 2.566-0.808 5.94 1.76 7.534 2.565 1.597 5.939 0.809 7.533-1.758 1.596-2.566 0.809-5.94-1.758-7.535-0.898-0.559-1.897-0.825-2.882-0.825-1.829 0-3.617 0.916-4.653 2.584m-47.846-1.818c-2.57 1.591-3.365 4.963-1.774 7.533 1.589 2.569 4.961 3.363 7.531 1.774 2.569-1.59 3.363-4.962 1.774-7.532-1.035-1.674-2.826-2.594-4.658-2.594-0.983 0-1.976 0.266-2.873 0.819m30.975-2.571c-0.555 2.97 1.402 5.828 4.373 6.383s5.828-1.402 6.383-4.373c0.553-2.97-1.404-5.828-4.375-6.383-0.338-0.063-0.677-0.095-1.011-0.095-2.582 2e-3 -4.879 1.838-5.37 4.468m-12.935-4.393c-2.97 0.549-4.934 3.4-4.387 6.373 0.549 2.973 3.402 4.936 6.376 4.387 2.97-0.549 4.934-3.403 4.387-6.373-0.487-2.636-2.787-4.481-5.374-4.481-0.331 0-0.665 0.03-1.002 0.094" clip-path="url(#clipPath55)" fill="#100b32"/></g><g transform="matrix(.27145 0 0 .27145 1.6617e-7 .00058298)" clip-path="url(#clipPath60)" opacity=".64999"><path transform="matrix(1.3333 0 0 -1.3333 62.494 27.4)" d="m0 0c-8e-3 3.021 2.436 5.478 5.459 5.483h-2e-3 0.087c3.021 0 5.472-2.449 5.472-5.471 0-3.019-2.444-5.465-5.462-5.471h-0.083c-3.017 0-5.465 2.442-5.471 5.459m18.837-9.013c-2.616 1.513-3.509 4.859-1.998 7.475 1.514 2.616 4.86 3.51 7.475 1.998 2.617-1.514 3.51-4.859 1.997-7.475-1.014-1.753-2.852-2.734-4.74-2.734-0.93 0-1.872 0.237-2.734 0.736m-34.116 1.951c-1.52 2.612-0.632 5.96 1.98 7.479s5.962 0.633 7.479-1.979c1.52-2.612 0.633-5.962-1.979-7.481-0.866-0.503-1.812-0.743-2.744-0.743-1.887 0-3.721 0.975-4.736 2.724m43.859-11.69c-1.514 2.616-0.622 5.963 1.994 7.477 2.614 1.514 5.962 0.622 7.475-1.991v-3e-3c1.514-2.613 0.622-5.961-1.993-7.475-0.864-0.501-1.806-0.738-2.736-0.738-1.889 0-3.727 0.98-4.74 2.73m-53.574-2.061c-2.617 1.508-3.517 4.854-2.009 7.472 1.509 2.618 4.853 3.517 7.471 2.009 2.62-1.507 3.519-4.853 2.01-7.47-1.011-1.759-2.853-2.742-4.746-2.742-0.926 0-1.864 0.235-2.726 0.731m68.077-11.22m-10.942-7e-3c-2e-3 3.022 2.445 5.472 5.469 5.474 3.021 2e-3 5.471-2.445 5.473-5.467 2e-3 -3.021-2.446-5.473-5.467-5.475-3.024 0-5.473 2.446-5.475 5.468m-64.136-0.08c-4e-3 3.021 2.442 5.475 5.463 5.479 3.022 7e-3 5.476-2.44 5.48-5.461 6e-3 -3.022-2.44-5.476-5.461-5.48h-0.01c-3.018 0-5.466 2.443-5.472 5.462m62.592-20.688c-2.617 1.512-3.514 4.857-2.003 7.474 1.512 2.618 4.858 3.513 7.476 2.001 2.616-1.511 3.512-4.857 2-7.474-1.013-1.755-2.851-2.736-4.742-2.736-0.928 0-1.87 0.237-2.731 0.735m-57.536 1.928c-1.518 2.614-0.628 5.962 1.984 7.479 2.614 1.516 5.962 0.628 7.479-1.986 1.518-2.612 0.628-5.959-1.983-7.477-0.866-0.503-1.81-0.742-2.742-0.742-1.887 0-3.723 0.977-4.738 2.726m43.813-11.681c-1.516 2.614-0.626 5.962 1.988 7.478 2.614 1.515 5.961 0.625 7.477-1.988 1.515-2.614 0.626-5.962-1.988-7.479-0.865-0.501-1.808-0.739-2.74-0.739-1.886 0-3.722 0.978-4.737 2.728m-30.062-2.032c-2.618 1.511-3.516 4.857-2.006 7.473 1.51 2.619 4.855 3.516 7.473 2.006s3.516-4.855 2.007-7.473c-1.014-1.757-2.853-2.738-4.746-2.738-0.926 0-1.867 0.236-2.728 0.732m13.299 0.465c-4e-3 3.02 2.442 5.472 5.464 5.476 3.023 4e-3 5.475-2.443 5.479-5.465 2e-3 -3.021-2.444-5.473-5.467-5.477h-6e-3c-3.019 0-5.468 2.446-5.47 5.466" clip-path="url(#clipPath58)" fill="#100b32"/></g><g transform="matrix(.27145 0 0 .27145 1.6617e-7 .00058298)" clip-path="url(#clipPath63)" opacity=".8"><path transform="matrix(1.3333 0 0 -1.3333 62.543 47.488)" d="m0 0c-8e-3 3.021 2.436 5.476 5.457 5.481h0.05c3.022 0 5.472-2.448 5.472-5.471 0-2.999-2.414-5.435-5.407-5.469-0.02 0-0.042-2e-3 -0.065-2e-3h-0.038c-3.015 0-5.463 2.441-5.469 5.461m15.496-11.225c-1.516 2.617-0.622 5.964 1.992 7.478 2.616 1.514 5.961 0.622 7.477-1.994 1.514-2.613 0.622-5.961-1.994-7.475-0.863-0.501-1.805-0.738-2.736-0.738-1.888 0-3.726 0.979-4.739 2.729m-27.46-2.032c-2.618 1.508-3.518 4.854-2.01 7.472s4.853 3.517 7.471 2.01c2.618-1.508 3.518-4.853 2.01-7.472-1.013-1.759-2.853-2.741-4.745-2.741-0.927 0-1.867 0.235-2.726 0.731m29.468-16.961c-2.616 1.512-3.514 4.858-2.002 7.476 1.511 2.616 4.857 3.512 7.475 2.002 2.616-1.512 3.512-4.86 2-7.476-1.013-1.755-2.851-2.735-4.742-2.735-0.928 0-1.87 0.237-2.731 0.733m-31.44 1.958c-1.518 2.614-0.628 5.961 1.984 7.479 2.614 1.516 5.962 0.629 7.479-1.986 1.516-2.612 0.629-5.962-1.983-7.477-0.866-0.502-1.81-0.741-2.744-0.741-1.884 0-3.72 0.976-4.736 2.725m13.991-5.735c-2e-3 3.021 2.444 5.474 5.467 5.477 3.021 2e-3 5.473-2.443 5.477-5.464 2e-3 -3.022-2.444-5.476-5.467-5.478h-6e-3c-3.018 0-5.467 2.443-5.471 5.465" clip-path="url(#clipPath61)" fill="#100b32"/></g><path transform="matrix(.36193 0 0 -.36193 16.987 19.032)" d="m0 0c-0.012 3.021 2.43 5.481 5.451 5.493h0.059c3.007-0.015 5.441-2.46 5.441-5.471 0-3.013-2.436-5.459-5.448-5.471h-0.032c-3.011 0-5.459 2.435-5.471 5.449" clip-path="url(#clipPath65)" fill="#100b32"/></g></svg>
