<?xml version="1.0" encoding="UTF-8"?>
<!-- Created with Inkscape (http://www.inkscape.org/) -->
<svg width="48.922mm" height="10mm" version="1.1" viewBox="0 0 48.922 10" xmlns="http://www.w3.org/2000/svg"><g transform="matrix(2.4462 0 0 2.4462 -.00061093 -7.2309)" fill="#0072bc" stroke-width=".015242"><path class="st1" d="m2.6829 2.956c-0.1951 0-0.38716 0.042679-0.52281 0.097551-0.13566-0.054873-0.32771-0.097551-0.52281-0.097551-0.85967 0-1.637 0.81394-1.637 1.9297 0 1.2163 0.9938 2.1583 2.1598 2.1583 1.166 0 2.1598-0.94045 2.1598-2.1583 0-1.1157-0.77736-1.9297-1.637-1.9297zm-0.52281 0.66304c0.16614 0.099075 0.38411 0.38411 0.38411 0.70725 0 0.23626-0.15547 0.42221-0.38411 0.42221s-0.38411-0.18596-0.38411-0.42221c-0.00152-0.32314 0.21797-0.60817 0.38411-0.70725zm0 2.893c-0.89168 0-1.6294-0.71792-1.6294-1.637 0-0.83985 0.60665-1.413 1.0822-1.3916-0.22559 0.22406-0.36277 0.55177-0.36277 0.86881 0 0.54568 0.43288 0.92826 0.90997 0.92826 0.47709 0 0.90997-0.38258 0.90997-0.92826 0-0.31704-0.13718-0.64475-0.36277-0.86881 0.47556-0.021339 1.0822 0.55177 1.0822 1.3916 0 0.92064-0.73773 1.637-1.6294 1.637z" clip-rule="evenodd" fill-rule="evenodd"/><path class="st2" d="m7.4309 3.8873v0.44508h0.67829v1.669h0.48013v-1.669h0.67828v-0.44508z"/><path class="st2" d="m15.331 3.8873h-1.2087v0.44813h1.1767c0.17224 0 0.23931 0.07926 0.23931 0.28046v0.074688h-0.97551c-0.37039 0-0.55482 0.18596-0.55482 0.60512v0.099075c0 0.43136 0.19053 0.6036 0.57616 0.6036h1.4297v-1.3886c0.001524-0.53043-0.17529-0.72249-0.68286-0.72249zm-0.69658 1.6614c-0.07316 0-0.15395-0.036582-0.15395-0.21797 0-0.18138 0.08078-0.21339 0.15395-0.21339h0.9054v0.43136h-0.9054z"/><path class="st2" d="m19.317 3.8873h-1.2087v0.44813h1.1767c0.17224 0 0.2393 0.07926 0.2393 0.28046v0.074688h-0.97551c-0.37039 0-0.55482 0.18596-0.55482 0.60512v0.099075c0 0.43136 0.19053 0.6036 0.57616 0.6036h1.4297v-1.3886c0-0.53043-0.17529-0.72249-0.68286-0.72249zm-0.69658 1.6614c-0.07316 0-0.15395-0.036582-0.15395-0.21797 0-0.18138 0.08078-0.21339 0.15395-0.21339h0.9054v0.43136h-0.9054z"/><path class="st2" d="m9.4185 3.8873v0.44508h0.67828v1.669h0.48013v-1.669h0.67828v-0.44508z"/><path class="st2" d="m16.111 3.8873v0.44508h0.67828v1.669h0.48014v-1.669h0.67828v-0.44508z"/><path class="st2" d="m13.824 5.2606v-0.63256c0-0.5533-0.21492-0.74078-0.69962-0.74078h-1.2849v2.1126h1.3078c0.51367 0 0.67676-0.25455 0.67676-0.73925zm-0.4908 0.00915c0 0.20272-0.06859 0.28046-0.24083 0.28046h-0.77279v-1.2133h0.77279c0.17224 0 0.24083 0.07926 0.24083 0.28046v0.65237z"/><path class="st2" d="m6.7541 5.4969c-0.01067-0.019815-0.65237-1.2697-0.73011-1.3916-0.08993-0.14175-0.2012-0.24083-0.41154-0.24083-0.19663 0-0.42831 0.086881-0.42831 0.55787v1.5806h0.47404v-1.3185c0-0.094503-0.0061-0.23473-0.00762-0.26217-0.00152-0.022863 0-0.045727 0.012194-0.051824 0.013718-0.00762 0.027436 0.00457 0.036582 0.022864 0.00915 0.018291 0.6036 1.1935 0.73011 1.3916 0.08993 0.14175 0.2012 0.24083 0.41154 0.24083 0.1951 0 0.42831-0.086881 0.42831-0.55787v-1.5806h-0.47251v1.3185c0 0.094503 0.0061 0.23473 0.00762 0.26369 0.00152 0.022864 0 0.045727-0.012194 0.051824-0.015242 0.0061-0.02896-0.0061-0.038106-0.024388z"/></g></svg>
