<?xml version="1.0" encoding="UTF-8" standalone="no"?>
<!-- Created with Inkscape (http://www.inkscape.org/) -->

<svg
   width="20mm"
   height="10mm"
   viewBox="0 0 20 10"
   version="1.1"
   id="svg1"
   inkscape:version="1.3 (0e150ed6c4, 2023-07-21)"
   sodipodi:docname="NTT_2x1.svg"
   xmlns:inkscape="http://www.inkscape.org/namespaces/inkscape"
   xmlns:sodipodi="http://sodipodi.sourceforge.net/DTD/sodipodi-0.dtd"
   xmlns="http://www.w3.org/2000/svg"
   xmlns:svg="http://www.w3.org/2000/svg">
  <sodipodi:namedview
     id="namedview1"
     pagecolor="#ffffff"
     bordercolor="#000000"
     borderopacity="0.25"
     inkscape:showpageshadow="2"
     inkscape:pageopacity="0.0"
     inkscape:pagecheckerboard="0"
     inkscape:deskcolor="#d1d1d1"
     inkscape:document-units="mm"
     inkscape:zoom="4.1335578"
     inkscape:cx="32.296633"
     inkscape:cy="23.224545"
     inkscape:window-width="1866"
     inkscape:window-height="1270"
     inkscape:window-x="989"
     inkscape:window-y="55"
     inkscape:window-maximized="0"
     inkscape:current-layer="layer1" />
  <defs
     id="defs1"><clipPath
   id="D">
  <path
     d="M 0,454 H 2551.18 V 0 H 0 Z"
     transform="translate(-170.866,-125.406)"
     id="path1" />
</clipPath>
<clipPath
   id="N">
  <path
     d="M 0,454 H 2551.18 V 0 H 0 Z"
     transform="translate(-354.768,-217.429)"
     id="path6" />
</clipPath>
<clipPath
   id="P">
  <path
     d="M 0,454 H 2551.18 V 0 H 0 Z"
     transform="translate(-520.875,-252.42)"
     id="path7" />
</clipPath>
<clipPath
   id="R">
  <path
     d="M 0,454 H 2551.18 V 0 H 0 Z"
     transform="translate(-657.992,-150.645)"
     id="path8" />
</clipPath>
<clipPath
   id="T">
  <path
     d="M 0,454 H 2551.18 V 0 H 0 Z"
     transform="translate(-836.162,-149.152)"
     id="path9" />
</clipPath>
<clipPath
   id="V">
  <path
     d="M 0,454 H 2551.18 V 0 H 0 Z"
     transform="translate(-947.887,-238.979)"
     id="path10" />
</clipPath>
<clipPath
   id="X">
  <path
     d="M 0,454 H 2551.18 V 0 H 0 Z"
     id="path11" />
</clipPath>
<clipPath
   id="Z">
  <path
     d="M 0,454 H 2551.18 V 0 H 0 Z"
     transform="translate(-1063.84,-238.979)"
     id="path12" />
</clipPath>
&#10;		&#10;		&#10;	</defs>
  <g
     inkscape:label="Capa 1"
     inkscape:groupmode="layer"
     id="layer1">
    <path
       class="st1"
       d="m 2.6829051,2.9559995 c -0.1951022,0 -0.3871559,0.042679 -0.5228129,0.097551 -0.135657,-0.054873 -0.3277108,-0.097551 -0.522813,-0.097551 -0.85966909,0 -1.637029452,0.813942 -1.637029452,1.9296828 0,1.2163403 0.993801872,2.1583182 2.159842452,2.1583182 1.1660405,0 2.1598424,-0.9404537 2.1598424,-2.1583182 0,-1.1157408 -0.7773604,-1.9296828 -1.6370295,-1.9296828 z M 2.1600922,3.6190422 c 0.1661417,0.099075 0.3841074,0.3841074 0.3841074,0.7072455 0,0.2362565 -0.155472,0.4222133 -0.3841074,0.4222133 -0.2286354,0 -0.3841075,-0.1859568 -0.3841075,-0.4222133 -0.00152,-0.3231381 0.2179657,-0.6081702 0.3841075,-0.7072455 z m 0,2.8929999 c -0.8916781,0 -1.62940832,-0.7179152 -1.62940832,-1.6370295 0,-0.839854 0.60664592,-1.4129667 1.08220752,-1.3916274 -0.2255869,0.2240626 -0.3627681,0.5517734 -0.3627681,0.8688145 0,0.5456765 0.432883,0.9282597 0.9099689,0.9282597 0.4770858,0 0.9099689,-0.3825832 0.9099689,-0.9282597 0,-0.3170411 -0.1371813,-0.6447519 -0.3627682,-0.8688145 0.4755616,-0.021339 1.0822075,0.5517734 1.0822075,1.3916274 0,0.9206386 -0.7377302,1.6370295 -1.6294082,1.6370295 z"
       id="path1-8"
       style="clip-rule:evenodd;fill:#0072bc;fill-rule:evenodd;stroke-width:0.0152424" />
    <g
       id="g8"
       transform="matrix(0.01524236,0,0,0.01524236,-2.1611169,1.6603989)">&#10;			<path
   class="st2"
   d="m 629.3,146.1 v 29.2 c 0,0 41.3,0 44.5,0 0,3.2 0,109.5 0,109.5 h 31.5 c 0,0 0,-106.2 0,-109.5 3.1,0 44.5,0 44.5,0 v -29.2 z"
   id="path2"
   style="fill:#0072bc" />
&#10;			<path
   class="st2"
   d="m 1147.6,146.1 h -79.3 v 29.4 h 77.2 c 11.3,0 15.7,5.2 15.7,18.4 0,0.1 0,3.8 0,4.9 -3.2,0 -64,0 -64,0 -24.3,0 -36.4,12.2 -36.4,39.7 v 6.5 c 0,28.3 12.5,39.6 37.8,39.6 h 93.8 v -91.1 c 0.1,-34.8 -11.5,-47.4 -44.8,-47.4 z m -45.7,109 c -4.8,0 -10.1,-2.4 -10.1,-14.3 0,-11.9 5.3,-14 10.1,-14 0,0 56.2,0 59.4,0 v 28.3 c -3.2,0 -59.4,0 -59.4,0 z"
   id="path3"
   style="fill:#0072bc" />
&#10;			<path
   class="st2"
   d="m 1409.1,146.1 h -79.3 v 29.4 h 77.2 c 11.3,0 15.7,5.2 15.7,18.4 0,0.1 0,3.8 0,4.9 -3.2,0 -64,0 -64,0 -24.3,0 -36.4,12.2 -36.4,39.7 v 6.5 c 0,28.3 12.5,39.6 37.8,39.6 h 93.8 v -91.1 c 0,-34.8 -11.5,-47.4 -44.8,-47.4 z m -45.7,109 c -4.8,0 -10.1,-2.4 -10.1,-14.3 0,-11.9 5.3,-14 10.1,-14 0,0 56.2,0 59.4,0 v 28.3 c -3.2,0 -59.4,0 -59.4,0 z"
   id="path4"
   style="fill:#0072bc" />
&#10;			<path
   class="st2"
   d="m 759.7,146.1 v 29.2 c 0,0 41.4,0 44.5,0 0,3.2 0,109.5 0,109.5 h 31.5 c 0,0 0,-106.2 0,-109.5 3.1,0 44.5,0 44.5,0 v -29.2 z"
   id="path5"
   style="fill:#0072bc" />
&#10;			<path
   class="st2"
   d="m 1198.8,146.1 v 29.2 c 0,0 41.3,0 44.5,0 0,3.2 0,109.5 0,109.5 h 31.5 c 0,0 0,-106.2 0,-109.5 3.1,0 44.5,0 44.5,0 v -29.2 z"
   id="path6-3"
   style="fill:#0072bc" />
&#10;			<path
   class="st2"
   d="m 1048.7,236.2 v -41.5 c 0,-36.3 -14.1,-48.6 -45.9,-48.6 h -84.3 v 138.6 h 85.8 c 33.7,0 44.4,-16.7 44.4,-48.5 z m -32.2,0.6 c 0,13.3 -4.5,18.4 -15.8,18.4 0,0 -47.6,0 -50.7,0 v -79.6 c 3.1,0 50.7,0 50.7,0 11.3,0 15.8,5.2 15.8,18.4 0,0.2 0,42.8 0,42.8 z"
   id="path7-2"
   style="fill:#0072bc" />
&#10;			<path
   class="st2"
   d="m 584.9,251.7 c -0.7,-1.3 -42.8,-83.3 -47.9,-91.3 -5.9,-9.3 -13.2,-15.8 -27,-15.8 -12.9,0 -28.1,5.7 -28.1,36.6 V 284.9 H 513 c 0,0 0,-80.2 0,-86.5 0,-6.2 -0.4,-15.4 -0.5,-17.2 -0.1,-1.5 0,-3 0.8,-3.4 0.9,-0.5 1.8,0.3 2.4,1.5 0.6,1.2 39.6,78.3 47.9,91.3 5.9,9.3 13.2,15.8 27,15.8 12.8,0 28.1,-5.7 28.1,-36.6 V 146.1 h -31 c 0,0 0,80.2 0,86.5 0,6.2 0.4,15.4 0.5,17.3 0.1,1.5 0,3 -0.8,3.4 -1,0.4 -1.9,-0.4 -2.5,-1.6 z"
   id="path8-3"
   style="fill:#0072bc" />
&#10;		</g>
  </g>
</svg>
