<?xml version="1.0" encoding="UTF-8" standalone="no"?>
<!-- Created with Inkscape (http://www.inkscape.org/) -->

<svg
   width="20mm"
   height="10mm"
   viewBox="0 0 20 10"
   version="1.1"
   id="svg1"
   inkscape:version="1.3 (0e150ed6c4, 2023-07-21)"
   sodipodi:docname="RETN_2x1.svg"
   xmlns:inkscape="http://www.inkscape.org/namespaces/inkscape"
   xmlns:sodipodi="http://sodipodi.sourceforge.net/DTD/sodipodi-0.dtd"
   xmlns="http://www.w3.org/2000/svg"
   xmlns:svg="http://www.w3.org/2000/svg">
  <sodipodi:namedview
     id="namedview1"
     pagecolor="#ffffff"
     bordercolor="#000000"
     borderopacity="0.25"
     inkscape:showpageshadow="2"
     inkscape:pageopacity="0.0"
     inkscape:pagecheckerboard="0"
     inkscape:deskcolor="#d1d1d1"
     inkscape:document-units="mm"
     inkscape:zoom="8.2671156"
     inkscape:cx="38.647095"
     inkscape:cy="17.418409"
     inkscape:window-width="1866"
     inkscape:window-height="1270"
     inkscape:window-x="989"
     inkscape:window-y="55"
     inkscape:window-maximized="0"
     inkscape:current-layer="layer1" />
  <defs
     id="defs1"><clipPath
   id="D">
  <path
     d="M 0,454 H 2551.18 V 0 H 0 Z"
     transform="translate(-170.866,-125.406)"
     id="path1" />
</clipPath>
<clipPath
   id="N">
  <path
     d="M 0,454 H 2551.18 V 0 H 0 Z"
     transform="translate(-354.768,-217.429)"
     id="path6" />
</clipPath>
<clipPath
   id="P">
  <path
     d="M 0,454 H 2551.18 V 0 H 0 Z"
     transform="translate(-520.875,-252.42)"
     id="path7" />
</clipPath>
<clipPath
   id="R">
  <path
     d="M 0,454 H 2551.18 V 0 H 0 Z"
     transform="translate(-657.992,-150.645)"
     id="path8" />
</clipPath>
<clipPath
   id="T">
  <path
     d="M 0,454 H 2551.18 V 0 H 0 Z"
     transform="translate(-836.162,-149.152)"
     id="path9" />
</clipPath>
<clipPath
   id="V">
  <path
     d="M 0,454 H 2551.18 V 0 H 0 Z"
     transform="translate(-947.887,-238.979)"
     id="path10" />
</clipPath>
<clipPath
   id="X">
  <path
     d="M 0,454 H 2551.18 V 0 H 0 Z"
     id="path11" />
</clipPath>
<clipPath
   id="Z">
  <path
     d="M 0,454 H 2551.18 V 0 H 0 Z"
     transform="translate(-1063.84,-238.979)"
     id="path12" />
</clipPath>
&#10;		&#10;		&#10;	</defs>
  <g
     inkscape:label="Capa 1"
     inkscape:groupmode="layer"
     id="layer1">
    <g
       id="group-R5"
       transform="matrix(0.02443086,0,0,0.02443086,0.00100302,3.5689934)">
      <path
         id="path2-8"
         d="M 970.414,525.637 H 574.629 l 40.008,149.347 h 396.273 c 40.53,-0.218 64.41,-33.597 53.34,-74.742 -11.1,-41.25 -53.11,-74.652 -93.836,-74.605 z M 1198.71,353.121 c 128.56,-0.144 264.42,117.356 303.46,262.449 39.04,145.094 -33.53,262.836 -162.1,262.985 l -201.26,0.023 v 0.004 H 669.18 235.359 L 0,0.0195313 H 433.824 L 528.414,353.121 h 233.07 L 1003.94,0.0195313 h 433.81 L 1195.31,353.121 h 3.4"
         style="fill:#23509f;fill-opacity:1;fill-rule:nonzero;stroke:none"
         transform="matrix(0.13333333,0,0,-0.13333333,0,117.14667)" />
      <path
         id="path3-7"
         d="M 5293.41,878.582 5152.17,351.367 4738.39,878.582 H 4304.57 L 4069.21,0.0195313 h 433.82 L 4643.83,525.598 5058.05,0.0195313 h 433.83 L 5727.23,878.582 h -433.82"
         style="fill:#23509f;fill-opacity:1;fill-rule:nonzero;stroke:none"
         transform="matrix(0.13333333,0,0,-0.13333333,0,117.14667)" />
      <path
         id="path4-8"
         d="M 4204.02,878.598 H 1830.33 c -84.56,0 -158.55,-56.868 -180.31,-138.578 L 1515.46,234.59 C 1483.93,116.152 1573.2,-0.00390625 1695.76,-0.00390625 h 126.1 64.98 823.03 L 2764.07,203.582 h -759 c -32.33,0 -55.87,30.637 -47.56,61.875 l 23.31,87.551 h 823.04 l 45.94,172.59 h -823.03 l 30.05,112.847 c 5.74,21.551 25.25,36.551 47.55,36.551 H 3282.15 L 3102.43,-0.00390625 h 433.84 L 3715.99,674.996 h 433.82 l 54.21,203.602"
         style="fill:#d70b8d;fill-opacity:1;fill-rule:nonzero;stroke:none"
         transform="matrix(0.13333333,0,0,-0.13333333,0,117.14667)" />
      <path
         id="path5-0"
         d="m 5983.46,862.98 c -77.26,0 -140.11,-62.855 -140.11,-140.109 0,-77.266 62.85,-140.125 140.11,-140.125 77.26,0 140.12,62.859 140.12,140.125 0,77.254 -62.86,140.109 -140.12,140.109 z m 0,-295.812 c -85.85,0 -155.69,69.844 -155.69,155.703 0,85.848 69.84,155.692 155.69,155.692 85.86,0 155.7,-69.844 155.7,-155.692 0,-85.859 -69.84,-155.703 -155.7,-155.703"
         style="fill:#23509f;fill-opacity:1;fill-rule:nonzero;stroke:none"
         transform="matrix(0.13333333,0,0,-0.13333333,0,117.14667)" />
      <path
         id="path6-0"
         d="m 6008.96,736.684 h -47.14 l 4.76,17.793 h 47.21 c 4.83,-0.032 7.67,-4.004 6.36,-8.907 -1.33,-4.914 -6.33,-8.89 -11.19,-8.886 z m 27.2,-20.559 c 15.32,-0.012 31.51,13.984 36.15,31.27 4.66,17.285 -3.99,31.316 -19.3,31.328 l -23.99,0.007 v 0 h -55.94 -51.68 l -28.04,-104.667 h 51.68 l 11.27,42.062 h 27.76 l 28.89,-42.062 h 51.68 l -28.88,42.062 h 0.4"
         style="fill:#23509f;fill-opacity:1;fill-rule:nonzero;stroke:none"
         transform="matrix(0.13333333,0,0,-0.13333333,0,117.14667)" />
    </g>
  </g>
</svg>
