<?xml version="1.0" encoding="UTF-8" standalone="no"?>
<!-- Created with Inkscape (http://www.inkscape.org/) -->

<svg
   width="20mm"
   height="10mm"
   viewBox="0 0 20 10"
   version="1.1"
   id="svg1"
   inkscape:version="1.3 (0e150ed6c4, 2023-07-21)"
   sodipodi:docname="RIPE_2x1.svg"
   xmlns:inkscape="http://www.inkscape.org/namespaces/inkscape"
   xmlns:sodipodi="http://sodipodi.sourceforge.net/DTD/sodipodi-0.dtd"
   xmlns="http://www.w3.org/2000/svg"
   xmlns:svg="http://www.w3.org/2000/svg">
  <sodipodi:namedview
     id="namedview1"
     pagecolor="#ffffff"
     bordercolor="#000000"
     borderopacity="0.25"
     inkscape:showpageshadow="2"
     inkscape:pageopacity="0.0"
     inkscape:pagecheckerboard="0"
     inkscape:deskcolor="#d1d1d1"
     inkscape:document-units="mm"
     inkscape:zoom="4.1335578"
     inkscape:cx="32.296633"
     inkscape:cy="23.224545"
     inkscape:window-width="1866"
     inkscape:window-height="1270"
     inkscape:window-x="862"
     inkscape:window-y="41"
     inkscape:window-maximized="0"
     inkscape:current-layer="layer1" />
  <defs
     id="defs1">
    <clipPath
       id="D">
      <path
         d="M 0,454 H 2551.18 V 0 H 0 Z"
         transform="translate(-170.866,-125.406)"
         id="path1" />
    </clipPath>
    <clipPath
       id="N">
      <path
         d="M 0,454 H 2551.18 V 0 H 0 Z"
         transform="translate(-354.768,-217.429)"
         id="path6" />
    </clipPath>
    <clipPath
       id="P">
      <path
         d="M 0,454 H 2551.18 V 0 H 0 Z"
         transform="translate(-520.875,-252.42)"
         id="path7" />
    </clipPath>
    <clipPath
       id="R">
      <path
         d="M 0,454 H 2551.18 V 0 H 0 Z"
         transform="translate(-657.992,-150.645)"
         id="path8" />
    </clipPath>
    <clipPath
       id="T">
      <path
         d="M 0,454 H 2551.18 V 0 H 0 Z"
         transform="translate(-836.162,-149.152)"
         id="path9" />
    </clipPath>
    <clipPath
       id="V">
      <path
         d="M 0,454 H 2551.18 V 0 H 0 Z"
         transform="translate(-947.887,-238.979)"
         id="path10" />
    </clipPath>
    <clipPath
       id="X">
      <path
         d="M 0,454 H 2551.18 V 0 H 0 Z"
         id="path11" />
    </clipPath>
    <clipPath
       id="Z">
      <path
         d="M 0,454 H 2551.18 V 0 H 0 Z"
         transform="translate(-1063.84,-238.979)"
         id="path12" />
    </clipPath>
    <linearGradient
       x1="0"
       y1="0"
       x2="1"
       y2="0"
       gradientUnits="userSpaceOnUse"
       gradientTransform="matrix(1233.82,1233.82,1233.82,-1233.82,219.148,30.7399)"
       spreadMethod="pad"
       id="linearGradient12">
      <stop
         style="stop-opacity:1;stop-color:#253169"
         offset="0"
         id="stop9" />
      <stop
         style="stop-opacity:1;stop-color:#253169"
         offset="0.24206275"
         id="stop10" />
      <stop
         style="stop-opacity:1;stop-color:#f2581a"
         offset="0.487202"
         id="stop11" />
      <stop
         style="stop-opacity:1;stop-color:#a9a8a8"
         offset="1"
         id="stop12" />
    </linearGradient>
    <clipPath
       clipPathUnits="userSpaceOnUse"
       id="clipPath12">
      <path
         d="M 1613.05,284 1239.32,68.2305 894.66,267.219 1268.86,483.27 V 914.254 L 1613.05,715.535 Z M 59.0742,284 59.0703,715.535 403.262,914.254 V 483.27 L 777.465,267.219 432.801,68.2305 Z m 403.2578,1130.56 373.727,215.78 373.721,-215.78 0.01,-397.43 L 836.059,1232.9 462.332,1017.13 Z M 865.598,715.535 1209.79,914.254 V 517.379 L 865.598,318.66 Z M 462.332,914.254 806.523,715.535 806.527,318.66 462.336,517.379 Z M 836.059,767.262 491.871,965.969 836.059,1164.69 1180.24,965.969 Z m 432.801,215.207 v 466.211 l -432.805,249.87 -432.797,-249.87 0.004,-465.657 v -0.554 L 0,749.648 V 249.879 L 432.801,0 836.063,232.828 1239.32,0 l 432.8,249.879 v 499.769 z"
         transform="translate(0,2.5e-5)"
         id="path12-3" />
    </clipPath>
  </defs>
  <g
     inkscape:label="Capa 1"
     inkscape:groupmode="layer"
     id="layer1">
    <g
       id="group-R5"
       transform="matrix(0.02145076,0,0,0.02145065,-8.4983997e-7,2.5711428)">
      <path
         id="path2"
         d="m 2256.03,1293.22 h -124.79 v -212.48 h 124.79 c 71.95,0 116.92,41.6 116.92,106.81 0,74.2 -49.47,105.67 -116.92,105.67 z m 125.92,-644.189 -158.53,283.305 h -91.06 V 649.031 h -201.25 v 801.599 h 350.77 c 79.82,0 141.67,-16.86 192.25,-53.97 61.83,-44.97 94.44,-119.17 94.44,-199 0,-97.81 -47.22,-193.37 -151.78,-236.09 l 184.38,-312.539 h -219.22"
         style="fill:#253169;fill-opacity:1;fill-rule:nonzero;stroke:none"
         transform="matrix(0.13333333,0,0,-0.13333333,0,226.46667)" />
      <path
         id="path3"
         d="m 2692.08,649.031 v 801.599 h 201.25 V 649.031 h -201.25"
         style="fill:#253169;fill-opacity:1;fill-rule:nonzero;stroke:none"
         transform="matrix(0.13333333,0,0,-0.13333333,0,226.46667)" />
      <path
         id="path4"
         d="m 3359.83,1293.22 h -129.28 v -212.48 h 129.28 c 68.59,0 116.93,35.98 116.93,107.93 0,69.71 -44.98,104.55 -116.93,104.55 z m 37.11,-366.505 H 3230.55 V 649.031 h -200.13 v 801.599 h 362.02 c 177.62,0 281.07,-109.06 281.07,-257.46 0,-131.54 -80.96,-266.455 -276.57,-266.455"
         style="fill:#253169;fill-opacity:1;fill-rule:nonzero;stroke:none"
         transform="matrix(0.13333333,0,0,-0.13333333,0,226.46667)" />
      <path
         id="path5"
         d="m 3774.52,649.031 v 801.599 h 590.25 v -163.02 h -390.12 v -152.9 h 328.29 V 972.813 H 3974.65 V 813.164 h 392.36 V 649.031 h -592.49"
         style="fill:#253169;fill-opacity:1;fill-rule:nonzero;stroke:none"
         transform="matrix(0.13333333,0,0,-0.13333333,0,226.46667)" />
      <path
         id="path6-6"
         d="M 5274.09,649.031 4960.42,1120.1 h -2.25 V 649.031 h -185.51 v 801.599 h 194.51 l 304.67,-453.083 h 2.25 v 453.083 h 186.62 V 649.031 h -186.62"
         style="fill:#253169;fill-opacity:1;fill-rule:nonzero;stroke:none"
         transform="matrix(0.13333333,0,0,-0.13333333,0,226.46667)" />
      <path
         id="path7-4"
         d="m 5918.13,635.539 c -176.5,0 -341.78,88.816 -341.78,288.934 v 243.967 c 0,196.74 159.65,295.68 336.15,295.68 156.28,0 326.05,-78.7 326.05,-264.21 v -51.02 h -188.88 v 31.92 c 0,83.19 -70.84,119.17 -132.66,119.17 -70.84,0 -139.41,-37.11 -139.41,-128.18 V 928.973 c 0,-82.078 59.59,-129.297 141.65,-129.297 61.84,0 130.42,34.851 130.42,119.172 v 33.359 h 188.88 v -53.59 c 0,-184.383 -165.27,-263.078 -320.42,-263.078"
         style="fill:#253169;fill-opacity:1;fill-rule:nonzero;stroke:none"
         transform="matrix(0.13333333,0,0,-0.13333333,0,226.46667)" />
      <path
         id="path8-7"
         d="m 6672.36,635.539 c -176.51,0 -341.78,88.816 -341.78,288.934 v 243.967 c 0,196.74 159.65,295.68 336.15,295.68 156.27,0 326.03,-78.7 326.03,-264.21 v -51.02 h -188.87 v 31.91 c 0,83.2 -70.83,119.18 -132.66,119.18 -70.83,0 -139.4,-37.11 -139.4,-128.18 V 928.973 c 0,-82.078 59.59,-129.297 141.65,-129.297 61.84,0 130.41,34.851 130.41,119.172 v 30.422 h 188.87 v -50.653 c 0,-184.383 -165.26,-263.078 -320.4,-263.078"
         style="fill:#253169;fill-opacity:1;fill-rule:nonzero;stroke:none"
         transform="matrix(0.13333333,0,0,-0.13333333,0,226.46667)" />
      <path
         id="path9-2"
         d="M 1613.05,284 1239.32,68.2305 894.66,267.219 1268.86,483.27 V 914.254 L 1613.05,715.535 Z M 59.0742,284 59.0703,715.535 403.262,914.254 V 483.27 L 777.465,267.219 432.801,68.2305 Z m 403.2578,1130.56 373.727,215.78 373.721,-215.78 0.01,-397.43 L 836.059,1232.9 462.332,1017.13 Z M 865.598,715.535 1209.79,914.254 V 517.379 L 865.598,318.66 Z M 462.332,914.254 806.523,715.535 806.527,318.66 462.336,517.379 Z M 836.059,767.262 491.871,965.969 836.059,1164.69 1180.24,965.969 Z m 432.801,215.207 v 466.211 l -432.805,249.87 -432.797,-249.87 0.004,-465.657 v -0.554 L 0,749.648 V 249.879 L 432.801,0 836.063,232.828 1239.32,0 l 432.8,249.879 v 499.769 l -403.26,232.821"
         style="fill:url(#linearGradient12);fill-opacity:1;fill-rule:nonzero;stroke:none"
         transform="matrix(0.13333333,0,0,-0.13333333,0,226.46667)"
         clip-path="url(#clipPath12)" />
      <path
         id="path13"
         d="m 1964.41,347.469 h 30.45 c 15.69,0 27.19,3.109 34.51,9.34 7.32,6.23 10.98,15.582 10.98,28.043 0,12.636 -3.72,21.75 -11.18,27.328 -7.45,5.57 -19.4,8.351 -35.87,8.351 h -28.89 z m 0,-19.078 V 248.91 h -22.22 v 191.11 h 52.41 c 23.44,0 40.76,-4.5 51.96,-13.469 11.19,-8.973 16.79,-22.481 16.79,-40.52 0,-25.269 -12.8,-42.351 -38.42,-51.242 l 51.89,-85.879 h -26.27 l -46.28,79.481 h -39.86"
         style="fill:#555288;fill-opacity:1;fill-rule:nonzero;stroke:none"
         transform="matrix(0.13333333,0,0,-0.13333333,0,226.46667)" />
      <path
         id="path14"
         d="m 2108.47,248.91 v 191.11 h 22.22 V 248.91 h -22.22"
         style="fill:#555288;fill-opacity:1;fill-rule:nonzero;stroke:none"
         transform="matrix(0.13333333,0,0,-0.13333333,0,226.46667)" />
      <path
         id="path15"
         d="m 2206.13,343.16 h 19.99 c 19.7,0 33.94,3.18 42.75,9.539 8.8,6.36 13.2,16.563 13.2,30.59 0,12.633 -4.14,22.039 -12.42,28.231 -8.28,6.179 -21.17,9.281 -38.69,9.281 h -24.83 z m 98.94,41.168 c 0,-19.34 -6.6,-34.226 -19.8,-44.637 -13.2,-10.421 -32.09,-15.621 -56.66,-15.621 h -22.48 v -75.16 h -22.22 v 191.11 h 49.53 c 47.76,0 71.63,-18.571 71.63,-55.692"
         style="fill:#555288;fill-opacity:1;fill-rule:nonzero;stroke:none"
         transform="matrix(0.13333333,0,0,-0.13333333,0,226.46667)" />
      <path
         id="path16"
         d="m 2452.4,248.91 h -106.53 v 191.11 h 106.53 v -19.739 h -84.3 v -61.57 h 79.2 v -19.602 h -79.2 v -70.32 h 84.3 V 248.91"
         style="fill:#555288;fill-opacity:1;fill-rule:nonzero;stroke:none"
         transform="matrix(0.13333333,0,0,-0.13333333,0,226.46667)" />
      <path
         id="path17"
         d="m 2715.17,248.91 h -25.36 l -104.44,160.379 h -1.04 c 1.39,-18.809 2.09,-36.07 2.09,-51.75 V 248.91 h -20.52 v 191.11 h 25.09 l 104.18,-159.739 h 1.05 c -0.18,2.348 -0.57,9.91 -1.18,22.688 -0.61,12.761 -0.83,21.89 -0.66,27.383 V 440.02 h 20.79 V 248.91"
         style="fill:#555288;fill-opacity:1;fill-rule:nonzero;stroke:none"
         transform="matrix(0.13333333,0,0,-0.13333333,0,226.46667)" />
      <path
         id="path18"
         d="m 2875.05,248.91 h -106.53 v 191.11 h 106.53 v -19.739 h -84.31 v -61.57 h 79.21 v -19.602 h -79.21 v -70.32 h 84.31 V 248.91"
         style="fill:#555288;fill-opacity:1;fill-rule:nonzero;stroke:none"
         transform="matrix(0.13333333,0,0,-0.13333333,0,226.46667)" />
      <path
         id="path19"
         d="m 2977.02,248.91 h -22.22 v 171.371 h -60.52 v 19.739 h 143.26 v -19.739 h -60.52 V 248.91"
         style="fill:#555288;fill-opacity:1;fill-rule:nonzero;stroke:none"
         transform="matrix(0.13333333,0,0,-0.13333333,0,226.46667)" />
      <path
         id="path20"
         d="m 3233.89,248.91 h -21.96 l -38.56,127.969 c -1.83,5.672 -3.88,12.812 -6.14,21.441 -2.27,8.621 -3.45,13.809 -3.53,15.551 -1.92,-11.5 -4.97,-24.101 -9.15,-37.769 L 3117.16,248.91 h -21.95 l -50.85,191.11 h 23.53 l 30.19,-118.04 c 4.19,-16.55 7.23,-31.539 9.15,-44.96 2.35,15.949 5.84,31.539 10.46,46.8 l 34.24,116.2 h 23.53 l 35.95,-117.258 c 4.18,-13.5 7.71,-28.75 10.59,-45.742 1.65,12.371 4.79,27.449 9.41,45.218 l 30.06,117.782 H 3285 l -51.11,-191.11"
         style="fill:#555288;fill-opacity:1;fill-rule:nonzero;stroke:none"
         transform="matrix(0.13333333,0,0,-0.13333333,0,226.46667)" />
      <path
         id="path21"
         d="m 3329.33,344.719 c 0,-25.867 5.5,-45.5 16.53,-58.879 11.02,-13.379 27.04,-20.059 48.04,-20.059 21.17,0 37.16,6.66 47.97,20 10.8,13.328 16.21,32.981 16.21,58.938 0,25.711 -5.38,45.211 -16.15,58.5 -10.76,13.293 -26.69,19.929 -47.77,19.929 -21.18,0 -37.28,-6.687 -48.3,-20.058 -11.03,-13.379 -16.53,-32.828 -16.53,-58.371 z m 152.27,0 c 0,-30.578 -7.73,-54.629 -23.2,-72.141 -15.47,-17.519 -36.97,-26.277 -64.5,-26.277 -28.15,0 -49.87,8.597 -65.16,25.82 -15.3,17.199 -22.94,41.5 -22.94,72.867 0,31.114 7.66,55.223 23,72.34 15.34,17.133 37.12,25.692 65.36,25.692 27.45,0 48.88,-8.719 64.31,-26.141 15.42,-17.43 23.13,-41.481 23.13,-72.16"
         style="fill:#555288;fill-opacity:1;fill-rule:nonzero;stroke:none"
         transform="matrix(0.13333333,0,0,-0.13333333,0,226.46667)" />
      <path
         id="path22"
         d="m 3547.24,347.469 h 30.46 c 15.68,0 27.19,3.109 34.51,9.34 7.33,6.23 10.98,15.582 10.98,28.043 0,12.636 -3.73,21.75 -11.17,27.328 -7.46,5.57 -19.42,8.351 -35.89,8.351 h -28.89 z m 0,-19.078 V 248.91 h -22.22 v 191.11 h 52.42 c 23.44,0 40.75,-4.5 51.96,-13.469 11.19,-8.973 16.8,-22.481 16.8,-40.52 0,-25.269 -12.82,-42.351 -38.44,-51.242 l 51.89,-85.879 h -26.27 l -46.27,79.481 h -39.87"
         style="fill:#555288;fill-opacity:1;fill-rule:nonzero;stroke:none"
         transform="matrix(0.13333333,0,0,-0.13333333,0,226.46667)" />
      <path
         id="path23"
         d="m 3829.34,248.91 h -26.14 l -69.67,92.68 -20,-17.77 v -74.91 h -22.23 v 191.11 h 22.23 v -94.77 l 86.66,94.77 h 26.27 l -76.86,-83.008 79.74,-108.102"
         style="fill:#555288;fill-opacity:1;fill-rule:nonzero;stroke:none"
         transform="matrix(0.13333333,0,0,-0.13333333,0,226.46667)" />
      <path
         id="path24"
         d="m 4008.58,422.891 c -21,0 -37.58,-6.993 -49.74,-20.981 -12.15,-13.98 -18.23,-33.129 -18.23,-57.449 0,-25.012 5.86,-44.332 17.58,-57.973 11.72,-13.629 28.44,-20.457 50.13,-20.457 13.34,0 28.54,2.399 45.62,7.199 v -19.48 c -13.25,-4.961 -29.59,-7.449 -49.02,-7.449 -28.15,0 -49.87,8.539 -65.16,25.621 -15.29,17.078 -22.94,41.348 -22.94,72.797 0,19.703 3.68,36.953 11.05,51.769 7.36,14.813 17.99,26.223 31.89,34.242 13.9,8.02 30.26,12.032 49.08,12.032 20.04,0 37.56,-3.66 52.55,-10.981 l -9.41,-19.09 c -14.47,6.797 -28.94,10.2 -43.4,10.2"
         style="fill:#555288;fill-opacity:1;fill-rule:nonzero;stroke:none"
         transform="matrix(0.13333333,0,0,-0.13333333,0,226.46667)" />
      <path
         id="path25"
         d="m 4110.02,344.719 c 0,-25.867 5.52,-45.5 16.55,-58.879 11.01,-13.379 27.03,-20.059 48.02,-20.059 21.19,0 37.17,6.66 47.98,20 10.8,13.328 16.2,32.981 16.2,58.938 0,25.711 -5.38,45.211 -16.14,58.5 -10.76,13.293 -26.68,19.929 -47.77,19.929 -21.17,0 -37.28,-6.687 -48.29,-20.058 -11.03,-13.379 -16.55,-32.828 -16.55,-58.371 z m 152.29,0 c 0,-30.578 -7.73,-54.629 -23.2,-72.141 -15.47,-17.519 -36.98,-26.277 -64.52,-26.277 -28.14,0 -49.86,8.597 -65.15,25.82 -15.29,17.199 -22.94,41.5 -22.94,72.867 0,31.114 7.67,55.223 23.01,72.34 15.33,17.133 37.12,25.692 65.35,25.692 27.45,0 48.89,-8.719 64.31,-26.141 15.42,-17.43 23.14,-41.481 23.14,-72.16"
         style="fill:#555288;fill-opacity:1;fill-rule:nonzero;stroke:none"
         transform="matrix(0.13333333,0,0,-0.13333333,0,226.46667)" />
      <path
         id="path26"
         d="m 4319.32,344.719 c 0,-25.867 5.52,-45.5 16.54,-58.879 11.02,-13.379 27.04,-20.059 48.03,-20.059 21.18,0 37.17,6.66 47.98,20 10.8,13.328 16.2,32.981 16.2,58.938 0,25.711 -5.38,45.211 -16.14,58.5 -10.76,13.293 -26.68,19.929 -47.77,19.929 -21.18,0 -37.28,-6.687 -48.3,-20.058 -11.02,-13.379 -16.54,-32.828 -16.54,-58.371 z m 152.29,0 c 0,-30.578 -7.74,-54.629 -23.21,-72.141 -15.47,-17.519 -36.97,-26.277 -64.51,-26.277 -28.14,0 -49.86,8.597 -65.15,25.82 -15.3,17.199 -22.94,41.5 -22.94,72.867 0,31.114 7.66,55.223 23,72.34 15.34,17.133 37.12,25.692 65.36,25.692 27.45,0 48.88,-8.719 64.31,-26.141 15.42,-17.43 23.14,-41.481 23.14,-72.16"
         style="fill:#555288;fill-opacity:1;fill-rule:nonzero;stroke:none"
         transform="matrix(0.13333333,0,0,-0.13333333,0,226.46667)" />
      <path
         id="path27"
         d="m 4537.24,347.469 h 30.45 c 15.69,0 27.19,3.109 34.51,9.34 7.33,6.23 10.98,15.582 10.98,28.043 0,12.636 -3.72,21.75 -11.17,27.328 -7.45,5.57 -19.42,8.351 -35.88,8.351 h -28.89 z m 0,-19.078 V 248.91 h -22.23 v 191.11 h 52.43 c 23.43,0 40.75,-4.5 51.95,-13.469 11.2,-8.973 16.8,-22.481 16.8,-40.52 0,-25.269 -12.82,-42.351 -38.43,-51.242 l 51.89,-85.879 h -26.28 l -46.27,79.481 h -39.86"
         style="fill:#555288;fill-opacity:1;fill-rule:nonzero;stroke:none"
         transform="matrix(0.13333333,0,0,-0.13333333,0,226.46667)" />
      <path
         id="path28"
         d="m 4810.31,345.512 c 0,24.918 -6.25,43.699 -18.76,56.328 -12.5,12.64 -31.09,18.961 -55.74,18.961 h -32.29 V 268.129 h 27.05 c 26.5,0 46.41,6.519 59.74,19.543 13.34,13.027 20,32.308 20,57.84 z m 23.52,0.789 c 0,-31.563 -8.55,-55.672 -25.68,-72.36 -17.12,-16.691 -41.76,-25.031 -73.92,-25.031 h -52.94 v 191.11 h 58.57 c 29.71,0 52.8,-8.239 69.28,-24.711 16.46,-16.457 24.69,-39.469 24.69,-69.008"
         style="fill:#555288;fill-opacity:1;fill-rule:nonzero;stroke:none"
         transform="matrix(0.13333333,0,0,-0.13333333,0,226.46667)" />
      <path
         id="path29"
         d="m 4877.25,248.91 v 191.11 h 22.23 V 248.91 h -22.23"
         style="fill:#555288;fill-opacity:1;fill-rule:nonzero;stroke:none"
         transform="matrix(0.13333333,0,0,-0.13333333,0,226.46667)" />
      <path
         id="path30"
         d="m 5101.97,248.91 h -25.36 l -104.44,160.379 h -1.04 c 1.38,-18.809 2.09,-36.07 2.09,-51.75 V 248.91 h -20.53 v 191.11 h 25.1 l 104.18,-159.739 h 1.04 c -0.17,2.348 -0.56,9.91 -1.17,22.688 -0.61,12.761 -0.83,21.89 -0.65,27.383 V 440.02 h 20.78 V 248.91"
         style="fill:#555288;fill-opacity:1;fill-rule:nonzero;stroke:none"
         transform="matrix(0.13333333,0,0,-0.13333333,0,226.46667)" />
      <path
         id="path31"
         d="m 5244.73,329.691 -22.23,59.207 c -2.87,7.5 -5.83,16.692 -8.88,27.582 -1.92,-8.359 -4.66,-17.558 -8.23,-27.582 l -22.48,-59.207 z m 30.71,-80.781 -23.78,60.781 h -76.61 l -23.52,-60.781 h -22.48 l 75.54,191.891 h 18.7 l 75.16,-191.891 h -23.01"
         style="fill:#555288;fill-opacity:1;fill-rule:nonzero;stroke:none"
         transform="matrix(0.13333333,0,0,-0.13333333,0,226.46667)" />
      <path
         id="path32"
         d="m 5384.35,248.91 h -22.23 v 171.371 h -60.51 v 19.739 h 143.26 v -19.739 h -60.52 V 248.91"
         style="fill:#555288;fill-opacity:1;fill-rule:nonzero;stroke:none"
         transform="matrix(0.13333333,0,0,-0.13333333,0,226.46667)" />
      <path
         id="path33"
         d="m 5474.42,248.91 v 191.11 h 22.23 V 248.91 h -22.23"
         style="fill:#555288;fill-opacity:1;fill-rule:nonzero;stroke:none"
         transform="matrix(0.13333333,0,0,-0.13333333,0,226.46667)" />
      <path
         id="path34"
         d="m 5563.45,344.719 c 0,-25.867 5.52,-45.5 16.55,-58.879 11.01,-13.379 27.03,-20.059 48.02,-20.059 21.18,0 37.17,6.66 47.98,20 10.8,13.328 16.2,32.981 16.2,58.938 0,25.711 -5.38,45.211 -16.14,58.5 -10.76,13.293 -26.68,19.929 -47.77,19.929 -21.18,0 -37.28,-6.687 -48.29,-20.058 -11.03,-13.379 -16.55,-32.828 -16.55,-58.371 z m 152.29,0 c 0,-30.578 -7.74,-54.629 -23.21,-72.141 -15.46,-17.519 -36.97,-26.277 -64.51,-26.277 -28.14,0 -49.86,8.597 -65.15,25.82 -15.3,17.199 -22.94,41.5 -22.94,72.867 0,31.114 7.66,55.223 23,72.34 15.34,17.133 37.12,25.692 65.36,25.692 27.45,0 48.88,-8.719 64.31,-26.141 15.42,-17.43 23.14,-41.481 23.14,-72.16"
         style="fill:#555288;fill-opacity:1;fill-rule:nonzero;stroke:none"
         transform="matrix(0.13333333,0,0,-0.13333333,0,226.46667)" />
      <path
         id="path35"
         d="m 5908.43,248.91 h -25.36 l -104.43,160.379 h -1.05 c 1.39,-18.809 2.09,-36.07 2.09,-51.75 V 248.91 h -20.52 v 191.11 h 25.09 l 104.18,-159.739 h 1.05 c -0.18,2.348 -0.57,9.91 -1.17,22.688 -0.62,12.761 -0.83,21.89 -0.66,27.383 V 440.02 h 20.78 V 248.91"
         style="fill:#555288;fill-opacity:1;fill-rule:nonzero;stroke:none"
         transform="matrix(0.13333333,0,0,-0.13333333,0,226.46667)" />
      <path
         id="path36"
         d="m 6113.94,422.891 c -21,0 -37.58,-6.993 -49.74,-20.981 -12.14,-13.98 -18.23,-33.129 -18.23,-57.449 0,-25.012 5.86,-44.332 17.58,-57.973 11.72,-13.629 28.44,-20.457 50.13,-20.457 13.34,0 28.54,2.399 45.62,7.199 v -19.48 c -13.25,-4.961 -29.59,-7.449 -49.02,-7.449 -28.15,0 -49.86,8.539 -65.16,25.621 -15.29,17.078 -22.94,41.348 -22.94,72.797 0,19.703 3.68,36.953 11.05,51.769 7.36,14.813 18,26.223 31.89,34.242 13.9,8.02 30.27,12.032 49.08,12.032 20.04,0 37.56,-3.66 52.55,-10.981 l -9.41,-19.09 c -14.46,6.797 -28.94,10.2 -43.4,10.2"
         style="fill:#555288;fill-opacity:1;fill-rule:nonzero;stroke:none"
         transform="matrix(0.13333333,0,0,-0.13333333,0,226.46667)" />
      <path
         id="path37"
         d="m 6308.33,248.91 h -106.54 v 191.11 h 106.54 v -19.739 h -84.31 v -61.57 h 79.21 v -19.602 h -79.21 v -70.32 h 84.31 V 248.91"
         style="fill:#555288;fill-opacity:1;fill-rule:nonzero;stroke:none"
         transform="matrix(0.13333333,0,0,-0.13333333,0,226.46667)" />
      <path
         id="path38"
         d="m 6500.76,248.91 h -25.36 l -104.44,160.379 h -1.04 c 1.38,-18.809 2.09,-36.07 2.09,-51.75 V 248.91 h -20.53 v 191.11 h 25.1 l 104.18,-159.739 h 1.04 c -0.17,2.348 -0.56,9.91 -1.17,22.688 -0.62,12.761 -0.83,21.89 -0.65,27.383 V 440.02 h 20.78 V 248.91"
         style="fill:#555288;fill-opacity:1;fill-rule:nonzero;stroke:none"
         transform="matrix(0.13333333,0,0,-0.13333333,0,226.46667)" />
      <path
         id="path39"
         d="m 6612.92,248.91 h -22.22 v 171.371 h -60.52 v 19.739 h 143.26 v -19.739 h -60.52 V 248.91"
         style="fill:#555288;fill-opacity:1;fill-rule:nonzero;stroke:none"
         transform="matrix(0.13333333,0,0,-0.13333333,0,226.46667)" />
      <path
         id="path40"
         d="m 6725.22,347.469 h 30.45 c 15.69,0 27.19,3.109 34.51,9.34 7.32,6.23 10.98,15.582 10.98,28.043 0,12.636 -3.72,21.75 -11.17,27.328 -7.46,5.57 -19.42,8.351 -35.88,8.351 h -28.89 z m 0,-19.078 V 248.91 h -22.23 v 191.11 h 52.43 c 23.43,0 40.75,-4.5 51.95,-13.469 11.2,-8.973 16.8,-22.481 16.8,-40.52 0,-25.269 -12.82,-42.351 -38.43,-51.242 l 51.89,-85.879 h -26.28 l -46.27,79.481 h -39.86"
         style="fill:#555288;fill-opacity:1;fill-rule:nonzero;stroke:none"
         transform="matrix(0.13333333,0,0,-0.13333333,0,226.46667)" />
      <path
         id="path41"
         d="m 6975.81,248.91 h -106.54 v 191.11 h 106.54 v -19.739 h -84.31 v -61.57 h 79.21 v -19.602 h -79.21 v -70.32 h 84.31 V 248.91"
         style="fill:#555288;fill-opacity:1;fill-rule:nonzero;stroke:none"
         transform="matrix(0.13333333,0,0,-0.13333333,0,226.46667)" />
    </g>
  </g>
</svg>
